<svg width="48" height="48" viewBox="0 0 48 48" fill="none" xmlns="http://www.w3.org/2000/svg">
<path fill-rule="evenodd" clip-rule="evenodd" d="M22.5315 25.2145C24.1686 27.3463 23.9613 30.6249 22.4252 32.839L16.9747 34.5514L12.5074 32.839L7.44216 29.2073C6.83625 28.772 6.57844 28.2543 6.68475 27.8003V27.795L7.25344 25.3659C7.35975 24.912 7.82213 24.5642 8.55563 24.4421L15.6804 23.2634C15.9515 23.2183 16.2146 23.1837 16.4697 23.1572C19.4514 22.8518 21.4179 23.7677 22.5315 25.2145Z" fill="#DB885E"/>
<path fill-rule="evenodd" clip-rule="evenodd" d="M25.5371 35.2495L43.8288 37.66V39.2688C43.8288 40.1528 43.106 40.8749 42.221 40.8749H8.85319C7.96828 40.8749 7.24538 40.1528 7.24538 39.2688V37.66L25.5371 35.2495Z" fill="#A9AAC9"/>
<path fill-rule="evenodd" clip-rule="evenodd" d="M36.72 37.6601V39.2689C36.72 39.4255 36.6961 39.5768 36.6535 39.7228C36.4568 40.3865 35.8377 40.875 35.1095 40.875H42.221C43.1059 40.875 43.8288 40.1529 43.8288 39.2689V37.6601H41.8197H39.0666H36.72Z" fill="#8080A4"/>
<path fill-rule="evenodd" clip-rule="evenodd" d="M40.4299 26.7437C43.6056 27.6012 44.5039 29.8497 44.5039 32.8391L33.5814 34.5514L22.4252 32.8391C19.9325 30.2188 21.7847 27.1047 22.5315 25.2146C24.397 23.0987 28.3754 21.1979 36.8795 22.9261C38.1417 24.1819 37.4534 25.9393 40.4299 26.7437Z" fill="#EFECFF"/>
<path fill-rule="evenodd" clip-rule="evenodd" d="M47.2969 33.4045V35.2496C47.2969 36.577 46.2099 37.6601 44.8839 37.6601H43.8288H41.8197H17.1739H7.24547H6.19041C4.86431 37.6601 3.77737 36.5769 3.77737 35.2496V33.4045C3.77737 33.0939 4.03247 32.839 4.34344 32.839H12.5074H12.8183H22.4253H44.504H46.731C47.0418 32.839 47.2969 33.0938 47.2969 33.4045Z" fill="#FF9A9F"/>
<path fill-rule="evenodd" clip-rule="evenodd" d="M36.8794 22.9262C35.9386 26.7544 33.5123 24.7951 31.5617 26.011C29.7121 27.1658 28.3992 25.7907 27.2379 25.2571C25.0268 24.2377 23.9532 24.2722 22.5315 25.2146C19.5156 25.427 16.9746 24.3751 16.4697 23.1572C16.9454 22.2095 17.8356 21.2351 20.6181 21.2139C22.8318 21.198 22.7999 19.629 25.0668 19.26C30.4163 18.3919 29.8822 21.1582 33.7489 21.705C35.4443 21.9439 36.3399 22.3898 36.8794 22.9262Z" fill="#FFE07D"/>
<path fill-rule="evenodd" clip-rule="evenodd" d="M22.8344 20.359C27.4266 19.8467 27.113 22.3846 30.799 22.9023C32.4945 23.1439 33.3901 23.5872 33.9322 24.1261C34.3309 24.5244 34.5355 24.9729 34.7241 25.427C35.6383 25.2651 36.4303 24.758 36.8794 22.9262C36.3399 22.3899 35.4443 21.944 33.7488 21.705C29.8821 21.1582 30.4162 18.3919 25.0667 19.26C23.94 19.4431 23.3819 19.9209 22.8344 20.359Z" fill="#FFC77D"/>
<path fill-rule="evenodd" clip-rule="evenodd" d="M34.7242 25.427C35.1254 26.4013 35.4497 27.3941 37.48 27.9411C40.2146 28.6818 41.2617 30.4524 41.4982 32.8391H44.5038C44.5038 29.8499 43.6056 27.6013 40.4298 26.7438C37.4534 25.9394 38.1416 24.182 36.8794 22.9262C36.4303 24.758 35.6383 25.265 34.7242 25.427Z" fill="#D5CEF7"/>
<path fill-rule="evenodd" clip-rule="evenodd" d="M39.0666 37.6601H41.8197H43.8288H44.8838C46.2099 37.6601 47.2969 36.5769 47.2969 35.2496V33.4045C47.2969 33.0939 47.0418 32.839 46.7308 32.839H44.5038H41.4982V34.9204C41.4982 36.3964 41.267 37.6601 39.0666 37.6601Z" fill="#FF8086"/>
<path fill-rule="evenodd" clip-rule="evenodd" d="M7.25343 25.3658L6.96646 26.5844L6.68474 27.795V27.8003L3.64724 27.0942C3.17156 29.1305 0.280213 28.4561 0.7559 26.4172C0.864838 25.9447 1.45753 25.6978 1.54256 25.3341C1.63021 24.9597 1.2104 24.4713 1.32468 23.9827C1.80037 21.9466 4.69443 22.6208 4.21603 24.6571L7.25343 25.3658Z" fill="#EFECFF"/>
<path fill-rule="evenodd" clip-rule="evenodd" d="M20.2407 27.503C20.5437 29.3029 20.2168 31.3551 19.3744 32.839H22.4252C23.4829 31.3152 23.9107 29.2843 23.5386 27.4711C23.5386 27.4711 21.8432 28.5144 20.4612 27.633C20.3895 27.5879 20.3178 27.5454 20.2407 27.503Z" fill="#C57142"/>
<path fill-rule="evenodd" clip-rule="evenodd" d="M0.705276 26.964C0.811589 28.5595 3.21665 28.9365 3.64715 27.0941L6.68465 27.8002V27.7949L6.68728 27.7869L6.96628 26.5843L7.25324 25.3657L6.18496 25.1162L6.12646 25.3657L5.95106 26.1144C5.90053 26.3347 5.9085 26.4702 5.69062 26.4171L3.62043 25.9259C3.22715 25.8356 3.05437 25.7108 2.93212 26.0242C2.55225 26.9986 1.99687 27.7764 0.705276 26.964Z" fill="#D5CEF7"/>
<path fill-rule="evenodd" clip-rule="evenodd" d="M22.5315 25.2145C23.0418 25.8782 23.3713 26.6534 23.5386 27.4711C23.5386 27.4711 21.8432 28.5144 20.4612 27.633C19.0793 26.7543 16.2996 26.1676 14.3728 26.4596C14.0539 26.5074 13.7403 26.5286 13.44 26.5234C11.9199 26.4863 10.6921 25.7322 10.4105 24.1341L15.6803 23.2633C15.9514 23.2182 16.2145 23.1836 16.4696 23.1571C19.4514 22.8518 21.4179 23.7677 22.5315 25.2145Z" fill="#FFE07D"/>
<path fill-rule="evenodd" clip-rule="evenodd" d="M19.2096 24.9809C19.7198 25.6446 20.052 26.4172 20.2194 27.2375C20.2194 27.2375 20.2115 27.2428 20.1929 27.2534C20.2088 27.3357 20.2248 27.418 20.2407 27.503C20.3178 27.5455 20.3895 27.5879 20.4613 27.6331C21.8432 28.5144 23.5387 27.4712 23.5387 27.4712C23.3713 26.6535 23.0418 25.8784 22.5316 25.2146C21.4181 23.7678 19.4515 22.8519 16.4698 23.1572C17.6762 23.5102 18.5797 24.1606 19.2096 24.9809Z" fill="#FFC77D"/>
<path d="M18.4976 15.0562C18.1944 15.3008 18.1455 15.7468 18.3881 16.0523C18.527 16.2272 18.7313 16.3181 18.9375 16.3181C19.0915 16.3181 19.2468 16.2673 19.3764 16.1626C20.0833 15.5922 21.1053 14.0413 19.9142 12.2548C19.2125 11.2007 19.6549 10.7928 20.0454 10.4327C20.0966 10.3854 20.1415 10.3434 20.1775 10.307C20.4511 10.0291 20.4494 9.58041 20.1738 9.30469C19.8981 9.02888 19.4529 9.03047 19.1794 9.30844C19.1569 9.33132 19.1284 9.35719 19.0963 9.38681C18.8651 9.6 18.4349 9.99675 18.2388 10.6208C18.0035 11.3694 18.1744 12.185 18.7469 13.045C19.4805 14.1458 18.6639 14.9167 18.4976 15.0562Z" fill="black"/>
<path d="M25.8028 12.2383C25.4996 12.4829 25.4507 12.929 25.6933 13.2345C25.8321 13.4093 26.0364 13.5003 26.2427 13.5003C26.3967 13.5003 26.5519 13.4495 26.6816 13.3448C27.3881 12.7747 28.4104 11.2237 27.2218 9.43378C26.5194 8.38013 26.9628 7.97288 27.3542 7.61353C27.4041 7.56769 27.448 7.52691 27.4833 7.49128C27.758 7.21472 27.7582 6.76594 27.4838 6.489C27.2093 6.21216 26.7642 6.21188 26.4894 6.48853C26.467 6.51113 26.4388 6.53663 26.407 6.56578C26.1753 6.7786 25.7439 7.17488 25.5469 7.79897C25.3103 8.54813 25.4811 9.36422 26.0539 10.2234C26.7867 11.3269 25.9693 12.0987 25.8028 12.2383Z" fill="black"/>
<path d="M32.7812 14.7832C32.478 15.0278 32.429 15.4738 32.6717 15.7793C32.8105 15.9542 33.0148 16.0451 33.221 16.0451C33.3751 16.0451 33.5303 15.9943 33.66 15.8896C34.3667 15.3194 35.3886 13.768 34.1975 11.9786C33.4951 10.9251 33.9385 10.5177 34.3297 10.1584C34.3797 10.1124 34.4236 10.0718 34.4589 10.0361C34.7336 9.75947 34.7338 9.31069 34.4594 9.03385C34.185 8.757 33.7398 8.75672 33.4651 9.03338C33.4426 9.05597 33.4144 9.08157 33.3827 9.11063C33.1509 9.32353 32.7196 9.71982 32.5225 10.3438C32.286 11.0931 32.4569 11.9091 33.0301 12.7688C33.7644 13.8723 32.9476 14.6437 32.7812 14.7832Z" fill="black"/>
<path d="M26.6914 27.7321H26.6754C26.2871 27.7321 25.9723 28.0493 25.9723 28.4408C25.9723 28.8323 26.2871 29.1496 26.6754 29.1496H26.6914C27.0797 29.1496 27.3945 28.8323 27.3945 28.4408C27.3945 28.0493 27.0797 27.7321 26.6914 27.7321Z" fill="black"/>
<path d="M31.5464 28.4841H31.5331C31.1448 28.4841 30.8299 28.8013 30.8299 29.1928C30.8299 29.5843 31.1448 29.9016 31.5331 29.9016H31.5464C31.9347 29.9016 32.2495 29.5843 32.2495 29.1928C32.2495 28.8013 31.9347 28.4841 31.5464 28.4841Z" fill="black"/>
<path d="M36.7151 30.6937H36.7284C37.1167 30.6937 37.4315 30.3764 37.4315 29.9849C37.4315 29.5934 37.1167 29.2762 36.7284 29.2762H36.7151C36.3268 29.2762 36.012 29.5934 36.012 29.9849C36.012 30.3764 36.3268 30.6937 36.7151 30.6937Z" fill="black"/>
<path d="M29.6012 24.0839H29.6171C30.0054 24.0839 30.3202 23.7667 30.3202 23.3752C30.3202 22.9837 30.0054 22.6664 29.6171 22.6664H29.6012C29.2129 22.6664 28.898 22.9837 28.898 23.3752C28.898 23.7667 29.2129 24.0839 29.6012 24.0839Z" fill="black"/>
<path d="M24.9613 22.9171H24.9772C25.3655 22.9171 25.6804 22.5999 25.6804 22.2084C25.6804 21.8169 25.3655 21.4996 24.9772 21.4996H24.9613C24.573 21.4996 24.2582 21.8169 24.2582 22.2084C24.2582 22.5999 24.5731 22.9171 24.9613 22.9171Z" fill="black"/>
<path d="M46.7308 32.201H45.1912C45.0829 29.9021 44.3375 27.0951 40.6136 26.0814C39.0061 25.6434 38.7413 24.9913 38.3749 24.0887C38.1592 23.5576 37.9148 22.9556 37.3756 22.4149C36.6387 21.6763 35.5176 21.2219 33.8479 20.9847C32.444 20.7846 31.7086 20.2685 30.9298 19.7221C29.6927 18.8541 28.4134 17.9565 24.9547 18.5224C23.694 18.7292 23.0123 19.2797 22.4645 19.722C21.9225 20.1598 21.5307 20.476 20.6139 20.4827C18.296 20.5005 16.8634 21.1234 16.032 22.4893C15.8794 22.5096 15.7252 22.5317 15.567 22.558L8.44179 23.7463C7.75067 23.8624 7.21376 24.1492 6.88611 24.5621L4.97098 24.1117C4.94529 23.5413 4.71795 23.0257 4.30901 22.6386C3.73929 22.0993 2.88748 21.8982 2.13889 22.1266C1.38373 22.3569 0.838106 22.9745 0.641888 23.8211C0.53445 24.2842 0.674981 24.6899 0.777544 24.9862C0.796856 25.042 0.822825 25.117 0.83895 25.1736C0.800606 25.2146 0.747263 25.2663 0.707325 25.3049C0.483825 25.5212 0.177825 25.8174 0.0731064 26.2754C-0.265987 27.7404 0.628481 28.7591 1.6872 29.0082C1.85679 29.0482 2.03108 29.0685 2.20583 29.0685C2.93558 29.0684 3.67189 28.7138 4.08542 27.9488L5.99717 28.3968C6.10892 28.9148 6.46451 29.4122 7.03432 29.8251L10.3218 32.2011H4.3452C3.64536 32.2011 3.07601 32.7747 3.07601 33.4797V35.3395C3.07601 37.0702 4.47382 38.4782 6.19198 38.4782H6.54392V39.391C6.54392 40.6746 7.58061 41.7188 8.85476 41.7188H42.2212C43.4954 41.7188 44.5321 40.6746 44.5321 39.391V38.4782H44.884C46.6022 38.4782 48 37.0702 48 35.3395V33.4797C48 32.7746 47.4306 32.201 46.7308 32.201ZM6.16142 26.9799L3.80811 26.4284C3.43029 26.3397 3.05248 26.5767 2.96426 26.9575C2.77695 27.7659 2.13392 27.6578 2.0067 27.6279C1.87958 27.5979 1.25483 27.4076 1.44242 26.597C1.46023 26.5412 1.59842 26.4074 1.68111 26.3275C1.88633 26.1289 2.14179 25.8817 2.22879 25.5064C2.31636 25.1295 2.19917 24.7911 2.10504 24.5191C2.06445 24.402 1.99658 24.206 2.01101 24.1439C2.0922 23.7939 2.27708 23.5655 2.54576 23.4836C2.81792 23.4007 3.13948 23.4764 3.34639 23.6722C3.54992 23.8647 3.61451 24.1511 3.53314 24.5004C3.49048 24.6835 3.52179 24.8762 3.62023 25.0361C3.71867 25.196 3.87608 25.3099 4.05786 25.3525L6.41033 25.9059L6.16142 26.9799ZM20.6242 21.9003C22.0288 21.8901 22.7273 21.3261 23.3436 20.8284C23.8487 20.4206 24.2847 20.0685 25.1803 19.9216C28.0774 19.4476 28.9815 20.0822 30.1264 20.8856C30.965 21.474 31.9155 22.1409 33.6514 22.3885C34.7516 22.5448 35.5515 22.8017 36.0808 23.1693C35.5942 24.7331 34.8553 24.7676 33.6893 24.8201C32.9143 24.8549 32.0358 24.8944 31.1899 25.4259C30.1639 26.0715 29.4319 25.724 28.3484 25.0745C28.083 24.9154 27.8084 24.7509 27.5331 24.6234C25.4205 23.6414 24.1103 23.5377 22.675 24.3124C21.8136 23.4138 20.39 22.513 18.1072 22.3941C18.621 22.1197 19.4025 21.9098 20.6242 21.9003ZM15.7964 23.9566C18.7923 23.4571 21.0675 24.1778 22.2021 25.9857C22.4188 26.3309 22.5887 26.7095 22.713 27.1095C22.2336 27.2926 21.4669 27.4674 20.8397 27.064C19.2494 26.0447 16.3019 25.4679 14.27 25.7784C13.9909 25.8205 13.716 25.8392 13.4587 25.835C12.6952 25.8161 11.7759 25.5879 11.327 24.702L15.7964 23.9566ZM7.85398 28.6734C7.47683 28.4003 7.3392 28.1288 7.37126 27.9908L7.93958 25.5384C7.97108 25.4028 8.21389 25.2218 8.67186 25.1449L9.90007 24.94C10.4139 26.3589 11.6871 27.2094 13.429 27.2523C13.7695 27.2585 14.1222 27.2342 14.4796 27.1801C16.1661 26.9225 18.7855 27.4271 20.0842 28.2597C20.6244 28.607 21.1909 28.7276 21.7175 28.7276C22.1764 28.7276 22.6045 28.6359 22.9589 28.5228C23.0223 29.7716 22.7105 31.0899 22.0406 32.2011H12.7346L7.85398 28.6734ZM46.5938 35.3395C46.5938 36.2886 45.8269 37.0607 44.884 37.0607H20.0105C19.6222 37.0607 19.3074 37.3779 19.3074 37.7694C19.3074 38.1609 19.6222 38.4782 20.0105 38.4782H43.1258V39.391C43.1258 39.8929 42.72 40.3013 42.2211 40.3013H8.85476C8.35592 40.3013 7.95008 39.8929 7.95008 39.391V38.4782H16.7632C17.1515 38.4782 17.4664 38.1609 17.4664 37.7694C17.4664 37.3779 17.1515 37.0607 16.7632 37.0607H6.19208C5.24923 37.0607 4.48226 36.2887 4.48226 35.3395V33.6185H22.4217C22.4221 33.6185 22.4225 33.6186 22.4229 33.6186C22.4235 33.6186 22.424 33.6185 22.4244 33.6185H32.0194C32.4078 33.6185 32.7226 33.3012 32.7226 32.9097C32.7226 32.5182 32.4078 32.201 32.0194 32.201H23.6358C24.6547 30.0141 24.6363 27.4177 23.5289 25.4606C24.4069 25.0416 25.2407 25.1188 26.9452 25.911C27.1538 26.0077 27.385 26.1462 27.6298 26.2929C28.2685 26.6757 29.1184 27.1853 30.134 27.1853C30.6874 27.1852 31.2901 27.0339 31.9342 26.6285C32.4666 26.2939 33.091 26.2658 33.7519 26.236C34.8564 26.1865 36.1781 26.1259 37.0341 24.5293C37.0472 24.5614 37.0602 24.593 37.0734 24.6256C37.472 25.6073 37.968 26.8289 40.2469 27.4497C42.5435 28.0749 43.6254 29.5128 43.7805 32.201H34.9027C34.5144 32.201 34.1996 32.5182 34.1996 32.9097C34.1996 33.3012 34.5144 33.6185 34.9027 33.6185H46.5937V35.3395H46.5938Z" fill="black"/>
</svg>
