<svg width="48" height="48" viewBox="0 0 48 48" fill="none" xmlns="http://www.w3.org/2000/svg">
<g clip-path="url(#clip0)">
<path fill-rule="evenodd" clip-rule="evenodd" d="M34.2868 26.9252C38.3996 25.1448 40.7695 21.0869 41.3965 16.681C41.6224 15.0999 41.6224 13.4736 41.3965 11.8925C40.5782 6.12863 36.7709 0.957379 29.98 0.70491C29.9508 0.70491 29.9242 0.70491 29.8976 0.70491H29.8897C29.4035 0.70491 29.4566 0.888285 29.4566 1.23375V14.2869V22.833C29.462 25.0278 33.3569 27.2547 34.2868 26.9252Z" fill="#A9AAC9"/>
<path fill-rule="evenodd" clip-rule="evenodd" d="M7.50835 24.1827L16.2787 26.1704L26.3189 24.1827V21.3685C26.3189 20.3269 25.4687 19.4765 24.4298 19.4765H9.40003C8.35857 19.4765 7.50835 20.3268 7.50835 21.3685V24.1827Z" fill="#DB885E"/>
<path fill-rule="evenodd" clip-rule="evenodd" d="M30.3441 47.0096C31.2075 46.5339 31.5263 45.4365 31.0507 44.5728L25.9628 35.3304C24.932 34.1984 21.6481 34.9212 22.6099 36.6697L25.2588 41.4876L27.9077 46.3027C28.3833 47.1665 29.4805 47.4853 30.3441 47.0096Z" fill="#EFECFF"/>
<path fill-rule="evenodd" clip-rule="evenodd" d="M7.96001 46.3692L10.6115 41.5514L13.2604 36.7362C12.7743 35.0329 11.5787 34.7166 9.87823 35.4447L4.81958 44.6393C4.34399 45.5029 4.6602 46.6004 5.52627 47.0761C6.3898 47.5518 7.48442 47.2329 7.96001 46.3692Z" fill="#EFECFF"/>
<path fill-rule="evenodd" clip-rule="evenodd" d="M25.9628 35.3304C28.5532 33.922 30.6522 31.7642 31.7361 28.8544C31.5847 28.8757 31.2154 29.035 31.2712 28.8863C31.8876 27.2812 31.5953 24.0657 28.2849 24.1827H24.3528H17.8115H9.08117H3.66655C3.27064 24.1827 3.07405 24.1216 3.09533 24.7514C3.28658 29.8988 6.07901 33.4623 9.87833 35.4447C10.9385 36.0001 12.0782 36.4306 13.2605 36.7362C16.2867 37.5228 19.5971 37.5015 22.61 36.6698C23.7843 36.3482 24.916 35.8991 25.9628 35.3304Z" fill="#A9AAC9"/>
<path fill-rule="evenodd" clip-rule="evenodd" d="M31.7362 28.8544C32.8787 28.6923 33.8351 27.9456 34.2868 26.9251C34.4701 26.5159 34.5711 26.0641 34.5711 25.5884C34.5711 23.7654 33.0938 22.2879 31.2712 22.2879C30.6017 22.2879 29.9774 22.4899 29.4566 22.8327C28.9518 23.1649 28.5453 23.6326 28.2849 24.1826C28.0857 24.6105 27.9741 25.0861 27.9741 25.5884C27.9741 27.4114 29.4487 28.8863 31.2712 28.8863C31.428 28.8864 31.5847 28.8757 31.7362 28.8544Z" fill="#EFECFF"/>
<path fill-rule="evenodd" clip-rule="evenodd" d="M26.3189 24.1827V21.3685C26.3189 20.3269 25.4687 19.4765 24.4298 19.4765H20.6572C21.6986 19.4765 22.5488 20.3268 22.5488 21.3685V24.1827H26.3189Z" fill="#C57142"/>
<path fill-rule="evenodd" clip-rule="evenodd" d="M13.2605 36.7362C16.2866 37.5228 19.597 37.5015 22.61 36.6698C23.7843 36.3482 24.9161 35.8991 25.9629 35.3304C28.5533 33.922 30.6523 31.7642 31.7362 28.8544C31.5848 28.8757 31.4281 28.8862 31.2713 28.8862C30.5008 28.8862 29.7915 28.6232 29.2282 28.1794C28.0725 29.9253 26.4863 31.2991 24.6531 32.2957C23.6037 32.8643 22.4745 33.3134 21.3002 33.6376C18.2873 34.4667 14.9768 34.488 11.9507 33.7013C10.7684 33.3957 9.62859 32.9652 8.56846 32.4098C6.52537 31.3442 4.77449 29.8216 3.56024 27.8391C4.52737 31.3522 6.89193 33.8873 9.87824 35.4446C10.9384 36.0001 12.0781 36.4306 13.2605 36.7362Z" fill="#8080A4"/>
<path fill-rule="evenodd" clip-rule="evenodd" d="M41.3965 11.8924C40.6234 6.45535 37.1933 1.54454 31.1065 0.795193C34.8553 2.69522 37.0286 6.57235 37.6238 10.7631C37.847 12.3443 37.847 13.9705 37.6238 15.5516C37.1908 18.5837 35.9341 21.4537 33.8484 23.5291C34.3001 24.0924 34.571 24.8099 34.571 25.5886C34.571 26.0643 34.4701 26.5161 34.2868 26.9253C38.3996 25.1449 40.7695 21.087 41.3965 16.6811C41.6223 15.0998 41.6223 13.4735 41.3965 11.8924Z" fill="#8080A4"/>
<path fill-rule="evenodd" clip-rule="evenodd" d="M34.2868 26.9252C34.4701 26.516 34.5711 26.0642 34.5711 25.5885C34.5711 24.8099 34.3 24.0924 33.8484 23.529C33.2427 22.7743 32.3154 22.288 31.2712 22.288C30.8913 22.288 30.5247 22.3545 30.1846 22.4714C31.0852 22.7292 31.8265 23.3589 32.2356 24.1854C32.3631 24.4459 32.4589 24.7249 32.5173 25.0198C32.5545 25.2217 32.5758 25.4318 32.5758 25.6443C32.5758 26.1226 32.4748 26.5744 32.2941 26.9836C32.2782 27.0155 32.2649 27.0473 32.249 27.0792C32.1506 27.2839 32.0311 27.4778 31.8929 27.6559C31.505 28.1581 30.9763 28.5488 30.3652 28.7614C30.6522 28.8438 30.9577 28.8863 31.2712 28.8863C31.428 28.8863 31.5847 28.8757 31.7361 28.8544C32.8787 28.6923 33.8351 27.9456 34.2868 26.9252Z" fill="#D5CEF7"/>
<path fill-rule="evenodd" clip-rule="evenodd" d="M31.0508 44.5728L25.9628 35.3305C25.5139 35.575 25.0489 35.7955 24.5733 35.9948L29.3768 44.7269C29.8285 45.5481 29.5628 46.5844 28.7871 47.0893C29.276 47.294 29.8472 47.2833 30.344 47.0097C31.2075 46.534 31.5264 45.4365 31.0508 44.5728Z" fill="#D5CEF7"/>
<path fill-rule="evenodd" clip-rule="evenodd" d="M7.96004 46.3692L10.6116 41.5514L13.2605 36.7362C12.6787 36.5847 12.1074 36.4041 11.5522 36.1942L9.10782 40.6373L6.45629 45.4551C6.12151 46.061 5.4812 46.4011 4.82767 46.3798C4.98442 46.6642 5.22085 46.9087 5.52639 47.076C6.38982 47.5518 7.48445 47.2329 7.96004 46.3692Z" fill="#D5CEF7"/>
<path d="M31.271 24.8582C30.8826 24.8582 30.5679 25.173 30.5679 25.5613V25.6178C30.5679 26.0061 30.8826 26.321 31.271 26.321C31.6593 26.321 31.974 26.0061 31.974 25.6178V25.5613C31.9739 25.173 31.6593 24.8582 31.271 24.8582Z" fill="black"/>
<path d="M13.3373 12.681C13.1436 13.1259 12.8084 13.4069 12.8085 13.4068C12.5054 13.6496 12.4566 14.092 12.6993 14.3951C12.8381 14.5686 13.0423 14.6588 13.2484 14.6588C13.4025 14.6588 13.5578 14.6082 13.6874 14.5044C14.465 13.8815 15.5892 12.1868 14.2789 10.2317C13.4349 8.97076 13.9953 8.46132 14.4456 8.05191C14.4996 8.00279 14.5472 7.9591 14.5856 7.92094C14.8613 7.64738 14.8629 7.20226 14.5894 6.92663C14.3157 6.65101 13.8705 6.64941 13.5952 6.92297C13.569 6.94885 13.5364 6.9781 13.4998 7.01138C13.0281 7.44029 11.5922 8.74566 13.1108 11.0143C13.4993 11.5939 13.5734 12.139 13.3373 12.681Z" fill="black"/>
<path d="M19.4607 12.681C19.2669 13.1259 18.9318 13.4069 18.9319 13.4068C18.6288 13.6496 18.5799 14.092 18.8227 14.3951C18.9615 14.5686 19.1657 14.6588 19.3718 14.6588C19.5259 14.6588 19.6811 14.6082 19.8108 14.5044C20.5883 13.8815 21.7126 12.1867 20.4022 10.2317C19.5598 8.97309 20.1187 8.46319 20.5678 8.0535C20.6231 8.00297 20.6717 7.95816 20.7108 7.91906C20.9853 7.64447 20.9853 7.19925 20.7107 6.92466C20.4359 6.65006 19.9908 6.65016 19.7165 6.92475C19.6902 6.951 19.6572 6.98062 19.6202 7.01447C19.1497 7.44366 17.7184 8.74969 19.2341 11.0142C19.6226 11.5939 19.6968 12.139 19.4607 12.681Z" fill="black"/>
<path d="M43.7141 11.1902H41.9969C41.9875 11.1358 41.9772 11.0805 41.9669 11.0261C41.3998 8.01685 40.0913 5.40591 38.181 3.47757C36.0457 1.32319 33.2197 0.121413 30.0075 0.00235025C29.702 -0.00889975 29.3167 0.0136002 29.0346 0.289225C28.7439 0.573288 28.7497 0.935162 28.7534 1.15079V9.76435C28.7534 10.1525 29.0683 10.4675 29.4564 10.4675C29.8454 10.4675 30.1595 10.1525 30.1595 9.76435V1.41685C36.4902 1.7506 39.68 6.648 40.5657 11.1901C40.5723 11.222 40.5788 11.2548 40.5845 11.2867C40.6651 11.716 40.7279 12.1538 40.7738 12.5963C40.8873 13.7035 40.8873 14.8435 40.7701 15.9769C40.7213 16.4484 40.652 16.9181 40.562 17.3831C39.9183 20.7163 38.2057 23.8263 35.2732 25.6204C35.2732 25.6096 35.274 25.599 35.274 25.5882C35.274 23.3821 33.4783 21.5873 31.2711 21.5873C30.8854 21.5873 30.5127 21.6433 30.1596 21.7457V13.0538C30.1596 12.6657 29.8455 12.3507 29.4565 12.3507C29.0685 12.3507 28.7535 12.6657 28.7535 13.0538V22.4821C28.407 22.7635 28.1089 23.1021 27.8722 23.4826H27.0243V21.367C27.0243 19.9373 25.86 18.774 24.429 18.774H9.39909C7.96959 18.774 6.80662 19.9373 6.80662 21.367V23.4826H3.66862C3.63693 23.4826 3.60665 23.4821 3.57778 23.4817C3.33937 23.4778 2.97853 23.4725 2.68865 23.7679C2.4074 24.0547 2.38115 24.4392 2.39268 24.7804C2.44762 26.2277 2.70262 27.6079 3.15065 28.8824C3.25228 29.1716 3.52378 29.3526 3.81384 29.3526C3.89118 29.3526 3.96993 29.3397 4.04699 29.3126C4.41337 29.1838 4.60584 28.7825 4.47703 28.4161C4.09209 27.3211 3.86615 26.1345 3.80465 24.8889H27.3321C27.2918 25.1161 27.2706 25.3498 27.2706 25.5884C27.2706 27.5923 28.7493 29.2569 30.6719 29.547C28.887 33.223 25.0672 35.7709 20.2452 36.4396C14.4715 37.2401 8.87193 35.209 5.97946 31.2648C5.74978 30.9516 5.30971 30.8842 4.99678 31.1137C4.68374 31.3433 4.61606 31.7833 4.84565 32.0964C5.913 33.5519 7.30828 34.7711 8.92584 35.7187L4.20131 44.3023C3.54046 45.5077 3.98231 47.0286 5.18765 47.6931C5.56725 47.9014 5.97796 48.0001 6.38362 48.0001C7.26553 48.0001 8.12259 47.5327 8.57756 46.7076L9.70143 44.665H26.2048L27.2934 46.6435C27.6144 47.2259 28.1445 47.6489 28.7861 47.8348C29.0175 47.9018 29.2532 47.935 29.4871 47.935C29.9019 47.935 30.3114 47.8307 30.6829 47.6258C31.2654 47.3064 31.6888 46.7772 31.875 46.1359C32.0615 45.4938 31.9871 44.8191 31.666 44.2368L26.9101 35.5894C29.3452 34.1053 31.2062 32.0061 32.2476 29.4689C33.3573 29.1892 34.2848 28.4467 34.8093 27.4573C38.9236 25.5631 41.2333 21.603 41.9856 17.3832H43.714C44.7591 17.3832 45.6093 16.5329 45.6093 15.4876V13.0858C45.6094 12.0404 44.7592 11.1902 43.7141 11.1902ZM25.6181 23.4826H8.21259V21.367C8.21259 20.7127 8.7449 20.1803 9.39909 20.1803H12.1687L11.9842 21.0549C11.9042 21.4349 12.1472 21.8079 12.5271 21.888C12.576 21.8983 12.6247 21.9033 12.6728 21.9033C12.9981 21.9033 13.2902 21.6761 13.36 21.3451L13.6057 20.1802H16.0284L15.844 21.0548C15.764 21.4348 16.007 21.8078 16.3868 21.8879C16.4358 21.8982 16.4845 21.9032 16.5326 21.9032C16.8578 21.9032 17.15 21.676 17.2198 21.345L17.4654 20.1801H19.7914L19.607 21.0548C19.5269 21.4347 19.7699 21.8078 20.1498 21.8878C20.1987 21.8981 20.2475 21.9031 20.2956 21.9031C20.6208 21.9031 20.9129 21.6759 20.9827 21.3449L21.2284 20.18H24.4291C25.0849 20.18 25.6183 20.7124 25.6183 21.3668V23.4826H25.6181ZM7.34615 46.029C7.05571 46.5557 6.39084 46.749 5.86518 46.4608C5.33868 46.1705 5.14546 45.5053 5.43374 44.9793L10.17 36.3743C10.1708 36.3742 10.1717 36.3742 10.1726 36.3742C10.8279 36.6822 11.5116 36.9493 12.2185 37.1735L7.34615 46.029ZM10.4752 43.2587L13.6146 37.553C14.9469 37.8574 16.3421 38.0173 17.7675 38.0173C18.6489 38.0173 19.5426 37.9566 20.4385 37.8323C21.06 37.7462 21.6656 37.6295 22.2555 37.4868L25.4313 43.2587H10.4752ZM30.4345 44.9151C30.5743 45.1686 30.6064 45.4629 30.5248 45.7436C30.4435 46.0236 30.2596 46.2542 30.0054 46.3936C29.7523 46.5333 29.4581 46.5653 29.1773 46.484C28.8964 46.4026 28.6645 46.2181 28.525 45.9649L23.6438 37.0932C23.6448 37.0918 23.6459 37.0905 23.6468 37.0891C24.3512 36.8556 25.0273 36.5813 25.6706 36.2672C25.6734 36.2677 25.6763 36.2681 25.6792 36.2687L30.4345 44.9151ZM31.271 28.1857C29.8405 28.1857 28.6767 27.0205 28.6767 25.5882C28.6767 24.1575 29.8405 22.9935 31.271 22.9935C32.7029 22.9935 33.8678 24.1575 33.8678 25.5882C33.8678 27.0204 32.7028 28.1857 31.271 28.1857ZM44.2034 15.4876C44.2034 15.7576 43.984 15.977 43.7141 15.977H42.1788C42.2885 14.8426 42.2894 13.7045 42.1863 12.5964H43.7141C43.984 12.5964 44.2034 12.8168 44.2034 13.0858V15.4876Z" fill="black"/>
</g>
<defs>
<clipPath id="clip0">
<rect width="48" height="48" fill="white"/>
</clipPath>
</defs>
</svg>
