<svg width="48" height="48" viewBox="0 0 48 48" fill="none" xmlns="http://www.w3.org/2000/svg">
<g clip-path="url(#clip0)">
<path fill-rule="evenodd" clip-rule="evenodd" d="M3.80541 25.7014L25.7014 3.80541C29.8411 -0.331686 36.6113 -0.331686 40.7512 3.80541L44.1933 7.25025C48.333 11.3873 48.333 18.1602 44.1933 22.2973L22.2973 44.1932C18.1602 48.333 11.3873 48.333 7.25025 44.1932L3.80541 40.751C-0.331588 36.6113 -0.331588 29.8411 3.80541 25.7014Z" fill="#FFE07D"/>
<path fill-rule="evenodd" clip-rule="evenodd" d="M2.42919 38.7857L38.7858 2.42906C40.6508 0.564096 43.7047 0.564096 45.5696 2.42906C47.4373 4.29675 47.4373 7.34794 45.5696 9.21553L9.21566 45.5695C7.34797 47.4372 4.29678 47.4372 2.42919 45.5695C0.564222 43.7046 0.564222 40.6506 2.42919 38.7857Z" fill="#FF9A9F"/>
<path d="M8.70441 39.4157C8.36326 39.4157 8.06382 39.167 8.01029 38.8193C7.95123 38.4355 8.21448 38.0765 8.59829 38.0174C9.26288 37.9151 10.3618 37.3586 11.2041 36.3783C11.6828 35.8218 12.021 35.1186 12.379 34.3741C13.0962 32.883 13.909 31.193 16.0714 30.4865C16.1085 30.4744 16.1465 30.4654 16.1851 30.4596C16.846 30.3601 17.9429 29.8055 18.7892 28.8229C19.2669 28.2667 19.605 27.5637 19.9629 26.8196C20.6801 25.3285 21.493 23.6385 23.656 22.9318C23.6924 22.9199 23.7297 22.911 23.7675 22.9052C24.4321 22.803 25.5309 22.2464 26.3733 21.2662C26.8515 20.7093 27.1896 20.0063 27.5475 19.2622C28.2647 17.7711 29.0776 16.081 31.2406 15.3743C31.2777 15.3622 31.3157 15.3532 31.3543 15.3473C32.0154 15.2479 33.1121 14.6932 33.9584 13.7107C34.4363 13.1542 34.7745 12.4508 35.1325 11.7063C35.8493 10.2157 36.6617 8.52609 38.8223 7.81949C39.1911 7.69865 39.5885 7.90012 39.7091 8.26931C39.8299 8.6384 39.6285 9.03543 39.2593 9.15618C37.6689 9.67631 37.0809 10.8994 36.3999 12.3157C36.0182 13.1094 35.6235 13.9301 35.0245 14.6276C33.9623 15.8609 32.5677 16.5643 31.6277 16.7275C30.0725 17.2568 29.4892 18.4696 28.8148 19.8716C28.4333 20.6649 28.0387 21.4852 27.44 22.1824C26.3121 23.4951 24.9222 24.1303 24.044 24.2846C22.4881 24.8138 21.9047 26.0268 21.2303 27.429C20.8487 28.2223 20.4541 29.0426 19.8553 29.7397C18.793 30.973 17.3985 31.6764 16.4585 31.8396C14.9038 32.3688 14.3206 33.5815 13.6463 34.9835C13.2645 35.7772 12.8696 36.5981 12.2704 37.2949C11.1157 38.6388 9.6857 39.2727 8.81204 39.4072C8.77604 39.413 8.73994 39.4157 8.70441 39.4157Z" fill="black"/>
<path fill-rule="evenodd" clip-rule="evenodd" d="M40.9955 19.1456L19.0995 41.0416C16.8029 43.3355 13.6975 44.3588 10.6788 44.1064L9.21565 45.5695C9.1804 45.6075 9.14506 45.6401 9.10709 45.6754C10.2472 46.3893 11.4959 46.8698 12.7827 47.1114C14.0966 47.3585 15.4512 47.3585 16.7677 47.1114C18.7982 46.7287 20.7364 45.7568 22.2973 44.1933L44.1933 22.2973C44.5001 21.9933 44.7823 21.6729 45.0402 21.3418C47.82 17.7993 48.0317 12.8614 45.6755 9.10706C45.6402 9.14503 45.6076 9.18038 45.5697 9.21563L44.0604 10.7249C44.3127 13.7436 43.2894 16.849 40.9955 19.1456Z" fill="#FFC77D"/>
<path fill-rule="evenodd" clip-rule="evenodd" d="M43.4713 7.43475L7.11453 43.7887C7.07113 43.8349 7.02491 43.8784 6.97606 43.9218C5.55088 45.2411 3.49869 45.5288 1.79656 44.7905C1.97572 45.0673 2.1875 45.3279 2.4291 45.5695C4.25872 47.4019 7.23397 47.4372 9.107 45.6754C9.14497 45.6401 9.18031 45.6075 9.21556 45.5695L10.6787 44.1064L44.0602 10.7249L45.5695 9.21562C45.6074 9.18037 45.6401 9.14503 45.6753 9.10706C47.4371 7.23403 47.4018 4.25878 45.5695 2.42915C45.1351 1.99481 44.6356 1.66097 44.1036 1.43015C45.1921 3.11053 45.1215 5.33915 43.8945 6.94893C43.7644 7.11722 43.6232 7.28006 43.4713 7.43475Z" fill="#FF8086"/>
<path d="M46.5348 9.17794C48.197 7.02197 48.042 3.90703 46.0668 1.93181C44.0915 -0.043499 40.9759 -0.197624 38.8206 1.46606C36.776 0.311251 34.3816 -0.186374 32.0202 0.062626C29.4462 0.334126 27.0257 1.48669 25.2042 3.30807L3.30826 25.2041C1.48689 27.0255 0.334233 29.4461 0.062827 32.0201C-0.186173 34.3816 0.311452 36.7759 1.46626 38.8204C-0.19761 40.9757 -0.0433916 44.0913 1.93201 46.0667C3.00461 47.1393 4.41358 47.6757 5.82245 47.6757C7.0083 47.6757 8.19339 47.2942 9.1787 46.5343C10.8797 47.4938 12.8211 48 14.7841 48C15.1823 48 15.5815 47.9792 15.9795 47.9372C18.5533 47.6657 20.9738 46.5126 22.7945 44.6905L33.4683 34.0194C33.7429 33.7448 33.743 33.2995 33.4684 33.025C33.1939 32.7504 32.7487 32.7503 32.474 33.0249L21.7999 43.6962C18.7691 46.7293 14.0453 47.4351 10.2601 45.5194L45.5195 10.26C47.4352 14.0453 46.7292 18.7691 43.6959 21.8002L34.8191 30.6797C34.5446 30.9543 34.5446 31.3995 34.8192 31.6741C34.9566 31.8114 35.1364 31.88 35.3164 31.88C35.4963 31.88 35.6764 31.8114 35.8136 31.674L44.6902 22.7948C46.5126 20.9738 47.6657 18.5534 47.9372 15.9796C48.1863 13.6189 47.6889 11.2242 46.5348 9.17794ZM2.92633 45.0723C1.33014 43.4761 1.33014 40.8791 2.92633 39.2829L20.6365 21.5701C20.911 21.2955 20.911 20.8503 20.6364 20.5757C20.3618 20.3011 19.9165 20.3011 19.642 20.5758L2.48148 37.7389C0.563827 33.9565 1.26883 29.2324 4.30258 26.1985L26.1986 4.30257C29.2325 1.26872 33.9566 0.563814 37.7391 2.48147L21.9874 18.2331C21.7128 18.5077 21.7128 18.9529 21.9874 19.2275C22.262 19.5021 22.7072 19.5021 22.9818 19.2275L39.283 2.92622C40.8792 1.33013 43.4762 1.33013 45.0724 2.92622C46.6692 4.52307 46.6692 7.12144 45.0724 8.71838L8.71839 45.0723C7.12155 46.6692 4.52326 46.6692 2.92633 45.0723Z" fill="black"/>
</g>
<defs>
<clipPath id="clip0">
<rect width="48" height="48" fill="white"/>
</clipPath>
</defs>
</svg>
