<svg width="14" height="14" viewBox="0 0 14 14" fill="none" xmlns="http://www.w3.org/2000/svg">
<g clip-path="url(#clip0)">
<path d="M13.8289 13.0043L9.84773 9.0231C10.6189 8.07053 11.0832 6.86012 11.0832 5.54181C11.0832 2.48634 8.59706 0.000183105 5.54159 0.000183105C2.48612 0.000183105 0 2.48631 0 5.54178C0 8.59725 2.48615 11.0834 5.54162 11.0834C6.85993 11.0834 8.07035 10.6191 9.02291 9.84792L13.0041 13.8291C13.1179 13.9429 13.2672 14.0001 13.4165 14.0001C13.5659 14.0001 13.7152 13.9429 13.829 13.8291C14.057 13.6011 14.057 13.2324 13.8289 13.0043ZM5.54162 9.91674C3.12897 9.91674 1.16666 7.95443 1.16666 5.54178C1.16666 3.12913 3.12897 1.16682 5.54162 1.16682C7.95427 1.16682 9.91658 3.12913 9.91658 5.54178C9.91658 7.95443 7.95425 9.91674 5.54162 9.91674Z" fill="#D3D3D3"/>
</g>
<defs>
<clipPath id="clip0">
<rect width="14" height="14" fill="white"/>
</clipPath>
</defs>
</svg>
