<svg width="48" height="48" viewBox="0 0 48 48" fill="none" xmlns="http://www.w3.org/2000/svg">
<g clip-path="url(#clip0)">
<path fill-rule="evenodd" clip-rule="evenodd" d="M5.46871 40.5548H42.5317C44.8357 40.5548 46.7198 38.9231 46.7198 36.9324V34.3953C46.7198 33.7978 46.1565 33.3128 45.4682 33.3102L43.2359 33.3075L23.0475 31.1749L5.19758 33.3076L2.53217 33.3103C1.84124 33.3103 1.27789 33.7979 1.27789 34.3954V36.9325C1.27789 38.9231 3.16471 40.5548 5.46871 40.5548Z" fill="#F8D2AB"/>
<path fill-rule="evenodd" clip-rule="evenodd" d="M2.54547 30.28C2.54547 31.8956 3.72803 33.2271 5.19757 33.3075L18.2508 33.2887L43.236 33.3075C44.7268 33.2512 45.9306 31.9117 45.9306 30.28V27.3142C45.9306 26.7944 45.8058 26.3015 45.5905 25.8728C43.4034 20.9055 6.77088 25.3958 2.90435 25.8379C2.67578 26.2773 2.54556 26.7809 2.54556 27.3142V30.28H2.54547Z" fill="#DB885E"/>
<path fill-rule="evenodd" clip-rule="evenodd" d="M8.84894 27.1052L15.6121 30.0657C16.3562 30.3926 16.8398 30.2854 17.4802 30.063L27.2357 26.6899C23.6002 24.4368 11.9289 22.2157 8.84894 27.1052Z" fill="#FFE07D"/>
<path fill-rule="evenodd" clip-rule="evenodd" d="M2.90164 25.838C4.02571 26.7435 5.63352 27.1347 7.2253 27.1776C7.77542 27.1936 8.32283 27.1669 8.84896 27.1052C9.74183 27.0034 10.571 26.7971 11.23 26.5265C14.084 25.3477 17.6795 25.57 19.8852 26.4166C20.9854 26.8399 22.4921 27.0516 23.9989 27.0516C25.1362 27.0516 26.2736 26.931 27.2356 26.6899C27.5492 26.6122 27.8441 26.5211 28.1125 26.4166C29.3216 25.9504 30.5706 25.7147 33.7701 25.7147C37.0467 25.7147 43.1588 28.1555 45.5903 25.8728C46.3928 25.1172 46.7942 23.85 46.5603 21.8084C46.5045 21.8084 46.4486 21.8084 46.3876 21.8084L23.9988 18.4031L1.61014 21.8085C1.55164 21.8085 1.49324 21.8085 1.44008 21.8085C1.22211 23.6919 1.8493 24.9913 2.90164 25.838Z" fill="#B3E59F"/>
<path fill-rule="evenodd" clip-rule="evenodd" d="M1.44001 21.8058H23.9989H32.6435H40.4324H46.5605V21.8085C47.0734 21.8139 47.3259 21.8112 47.2939 21.1816C46.7996 11.8982 35.3248 7.31944 23.9989 7.44806C14.8521 7.33022 1.23545 11.1989 0.706608 21.1816C0.672108 21.8112 0.924483 21.8139 1.44001 21.8085C1.44001 21.8085 1.44001 21.8085 1.44001 21.8058Z" fill="#F8D2AB"/>
<path fill-rule="evenodd" clip-rule="evenodd" d="M38.7449 26.4461C41.4157 26.9203 44.1501 27.2258 45.5905 25.8728C46.393 25.1172 46.7943 23.85 46.5604 21.8084C46.5046 21.8084 46.4487 21.8084 46.3877 21.8084H40.5148H40.6025C40.8363 23.8499 40.4351 25.1172 39.6352 25.8728C39.3775 26.114 39.0772 26.3015 38.7449 26.4461Z" fill="#95D6A4"/>
<path fill-rule="evenodd" clip-rule="evenodd" d="M46.5604 21.8058V21.8085C46.5604 21.8085 46.5604 21.8085 46.5604 21.8058ZM21.1581 7.53103C31.3839 8.20087 40.8895 12.7501 41.336 21.1842C41.3625 21.6879 41.2057 21.7897 40.8789 21.8058C40.8763 21.8058 40.8736 21.8085 40.871 21.8085H46.3878H46.5578H46.5605C47.0734 21.8138 47.3258 21.8112 47.2939 21.1816C46.7996 11.8982 35.3248 7.31944 23.9989 7.44806C23.09 7.43456 22.1387 7.46409 21.1581 7.53103Z" fill="#FFBB8B"/>
<path fill-rule="evenodd" clip-rule="evenodd" d="M39.0851 27.8875V30.8534C39.0851 31.8581 38.6307 32.753 37.9318 33.3049L43.2359 33.3076C44.7268 33.2513 45.9306 31.9118 45.9306 30.2801V27.3143C45.9306 26.7945 45.8057 26.3016 45.5905 25.8728C44.1502 27.2258 41.4157 26.9204 38.745 26.4462C38.9628 26.8748 39.0851 27.3678 39.0851 27.8875Z" fill="#C57142"/>
<path fill-rule="evenodd" clip-rule="evenodd" d="M41.4156 36.9272C41.4156 38.9205 39.5315 40.5495 37.2275 40.5495H5.26141C5.33051 40.5522 5.3996 40.5548 5.46869 40.5548H42.5317C44.8357 40.5548 46.7198 38.9232 46.7198 36.9325V34.3954C46.7198 33.7979 46.1565 33.3129 45.4682 33.3103L43.2359 33.3076L40.1639 33.3049C40.8522 33.3076 41.4155 33.7925 41.4155 34.3899V36.9272H41.4156Z" fill="#FFBB8B"/>
<path d="M11.4612 15.8752C11.0726 15.8752 10.7577 16.1902 10.7577 16.5787V16.6349C10.7577 17.0234 11.0726 17.3384 11.4612 17.3384C11.8498 17.3384 12.1647 17.0234 12.1647 16.6349V16.5787C12.1647 16.1902 11.8498 15.8752 11.4612 15.8752Z" fill="black"/>
<path d="M23.9989 15.9315C23.6103 15.9315 23.2954 16.2465 23.2954 16.635V16.6886C23.2954 17.0771 23.6103 17.3921 23.9989 17.3921C24.3875 17.3921 24.7024 17.0771 24.7024 16.6886V16.635C24.7024 16.2464 24.3875 15.9315 23.9989 15.9315Z" fill="black"/>
<path d="M36.5366 15.985C36.148 15.985 35.8331 16.3 35.8331 16.6885V16.7448C35.8331 17.1333 36.148 17.4483 36.5366 17.4483C36.9252 17.4483 37.2401 17.1333 37.2401 16.7448V16.6885C37.24 16.3 36.9251 15.985 36.5366 15.985Z" fill="black"/>
<path d="M17.4802 12.052C17.0916 12.052 16.7767 12.367 16.7767 12.7555V12.8092C16.7767 13.1977 17.0916 13.5127 17.4802 13.5127C17.8688 13.5127 18.1837 13.1977 18.1837 12.8092V12.7555C18.1837 12.3669 17.8688 12.052 17.4802 12.052Z" fill="black"/>
<path d="M30.5175 12.1618C30.1289 12.1618 29.814 12.4768 29.814 12.8653V12.9189C29.814 13.3074 30.1289 13.6224 30.5175 13.6224C30.9061 13.6224 31.221 13.3074 31.221 12.9189V12.8653C31.221 12.4768 30.9061 12.1618 30.5175 12.1618Z" fill="black"/>
<path d="M47.9964 21.1441C47.7531 16.5746 45.0004 12.7774 40.0361 10.1629C35.7228 7.89112 30.0278 6.67631 23.9994 6.74447C18.7621 6.67837 13.09 7.85484 8.81812 9.89212C3.30262 12.5226 0.254709 16.4135 0.00411547 21.144C-0.011447 21.4355 0.00289672 21.8597 0.306459 22.1766C0.424491 22.2998 0.556397 22.3779 0.694772 22.4279C0.668897 24.1451 1.32796 25.2875 2.06155 26.025C1.91812 26.4373 1.84209 26.8744 1.84209 27.3142V30.28C1.84209 31.1594 2.12896 31.9681 2.60699 32.6067H2.53218C1.45274 32.6067 0.574491 33.409 0.574491 34.3953V36.9325C0.574491 39.3177 2.77012 41.2583 5.46871 41.2583H42.5318C45.2291 41.2583 47.4234 39.3177 47.4234 36.9325V34.3953C47.4234 33.5268 46.7429 32.8016 45.8442 32.6407C46.3376 31.9969 46.6341 31.1748 46.6341 30.28V27.3142C46.6341 26.8658 46.5594 26.4307 46.4132 26.0145C47.1001 25.1587 47.3975 23.9742 47.317 22.4233C47.4503 22.3733 47.5773 22.2966 47.6914 22.1778C47.9952 21.862 48.011 21.4381 47.9964 21.1441ZM46.0165 34.3953V36.9325C46.0165 38.5419 44.4533 39.8513 42.5318 39.8513H5.46871C3.54581 39.8513 1.9814 38.5419 1.9814 36.9325V34.3953C1.9814 34.2148 2.20752 34.0137 2.53218 34.0137H15.0275C15.4161 34.0137 15.731 33.6987 15.731 33.3102C15.731 32.9217 15.4161 32.6067 15.0275 32.6067H5.3385C4.18631 32.6067 3.24899 31.563 3.24899 30.28V27.3142C3.24899 27.1838 3.26024 27.0539 3.28021 26.9258C4.50403 27.5903 6.05118 27.8843 7.57359 27.8843C7.96687 27.8843 8.35819 27.864 8.742 27.8262L15.3293 30.7097C15.7688 30.9028 16.1512 30.9752 16.5007 30.9752C16.9398 30.9752 17.327 30.8608 17.7102 30.7278L27.43 27.3669C27.7648 27.2819 28.0783 27.1838 28.3657 27.0729C29.4672 26.6482 30.6548 26.4181 33.7703 26.4181C34.7575 26.4181 36.0701 26.6639 37.4599 26.9242C40.1735 27.4323 43.1997 27.9979 45.2052 26.9848C45.2193 27.0932 45.2271 27.203 45.2271 27.3141V30.2799C45.2271 31.5629 44.2898 32.6066 43.1377 32.6066H18.2748C17.8862 32.6066 17.5713 32.9216 17.5713 33.3101C17.5713 33.6986 17.8862 34.0136 18.2748 34.0136H45.4682C45.7913 34.0137 46.0165 34.2148 46.0165 34.3953ZM11.1057 27.3252C11.2404 27.2783 11.3718 27.2289 11.4984 27.1767C14.1558 26.0791 17.6021 26.2939 19.6325 27.0732C20.367 27.3558 21.2706 27.5563 22.2661 27.6638L17.2494 29.3985C16.6909 29.5924 16.4119 29.6488 15.8941 29.4213L11.1057 27.3252ZM46.3877 21.105L31.5673 21.1023C31.5673 21.1023 31.5673 21.1023 31.5672 21.1023C31.1787 21.1023 30.8638 21.4172 30.8637 21.8056C30.8636 22.1941 31.1786 22.5091 31.5671 22.5092L45.913 22.5118C45.9773 23.8441 45.7057 24.8025 45.1021 25.3648C43.7083 26.663 40.5264 26.0671 37.7189 25.5413C36.2632 25.2687 34.8881 25.0113 33.7704 25.0113C30.4348 25.0113 29.1197 25.2745 27.8596 25.7603C26.8909 26.1339 25.4838 26.3482 23.9991 26.3482C22.5166 26.3482 21.1092 26.1338 20.1374 25.7599C17.917 24.9077 14.0986 24.5804 10.9621 25.876C9.10472 26.6414 5.45568 26.8883 3.43518 25.3609C2.54662 24.6893 2.10084 23.7322 2.10271 22.5118L28.3227 22.5092C28.7112 22.5092 29.0261 22.1941 29.0261 21.8056C29.0261 21.4171 28.7111 21.1022 28.3225 21.1022C28.3225 21.1022 1.42621 21.1062 1.41571 21.1062C1.74909 15.888 5.94693 12.82 9.42394 11.1619C13.5127 9.21187 18.9568 8.08528 23.99 8.15128C23.9958 8.15137 24.0015 8.15137 24.007 8.15128C29.8102 8.08622 35.2685 9.24178 39.3806 11.4075C42.4615 13.0301 46.1781 15.9925 46.5726 20.9332C46.5772 20.9906 46.5811 21.0447 46.5848 21.1027C46.5847 21.1028 46.4451 21.105 46.3877 21.105Z" fill="black"/>
</g>
<defs>
<clipPath id="clip0">
<rect width="48" height="48" fill="white"/>
</clipPath>
</defs>
</svg>
