<svg width="212" height="50" viewBox="0 0 212 50" fill="none" xmlns="http://www.w3.org/2000/svg">
<g clip-path="url(#clip0)">
<path fill-rule="evenodd" clip-rule="evenodd" d="M21.5922 21.8001C20.9657 19.7778 21.3533 17.309 23.6336 14.8189L27.3687 10.7422C26.6121 10.2453 25.7573 9.91836 24.8706 9.76958C24.5999 9.71642 24.3211 9.6792 24.0423 9.66064C20.4479 9.41079 16.6066 12.1242 17.2544 18.59L17.5756 21.8002H17.8995H21.5922V21.8001Z" fill="#DB885E"/>
<path fill-rule="evenodd" clip-rule="evenodd" d="M16.4156 47.2965L19.1021 34.45L19.065 25.5101L14.4432 24.386L9.96741 25.5101L13.2938 46.1484C13.3946 46.773 13.8087 47.2965 14.4406 47.2965H16.4156Z" fill="#F8D2AB"/>
<path fill-rule="evenodd" clip-rule="evenodd" d="M39.2936 46.1484L42.6199 25.5101L39.0972 24.386L35.5531 25.5101L33.1347 36.1535L32.9037 47.2966H38.1441C38.7759 47.2965 39.1927 46.7729 39.2936 46.1484Z" fill="#F8D2AB"/>
<path fill-rule="evenodd" clip-rule="evenodd" d="M39.2936 46.1484L42.62 25.5101H35.5532L35.155 28.7736L36.8168 28.7656C37.7672 28.7656 38.0407 28.5955 37.9053 29.5044L35.2479 47.2965H38.1442C38.7759 47.2965 39.1927 46.7729 39.2936 46.1484Z" fill="#FFBB8B"/>
<path fill-rule="evenodd" clip-rule="evenodd" d="M46.1268 6.75329C46.6152 5.88432 46.3074 4.78407 45.4392 4.29245L42.9703 2.89717C42.1022 2.40817 41.0005 2.71642 40.5121 3.58548C40.0209 4.45445 40.3289 5.5547 41.197 6.04632L38.699 10.4764L38.7123 10.4844L39.2724 12.2941L41.1599 11.8662L41.1705 11.8716L43.6686 7.43879C44.5366 7.93051 45.6356 7.62226 46.1268 6.75329Z" fill="#F1F4F6"/>
<path fill-rule="evenodd" clip-rule="evenodd" d="M41.1705 11.8716L43.6686 7.43886C44.5366 7.93048 45.6357 7.62223 46.1268 6.75326C46.5595 5.98255 46.3684 5.03117 45.7127 4.48376C45.7711 4.86645 45.7047 5.27042 45.5003 5.63445C45.049 6.43433 44.0031 6.23773 43.1749 5.90023C42.9041 5.7913 42.8192 5.92676 42.6466 6.21917L39.7955 11.0958L41.1547 11.8638L41.16 11.8664L41.1705 11.8716Z" fill="#D5CEF7"/>
<path fill-rule="evenodd" clip-rule="evenodd" d="M27.6688 47.2965L30.5146 36.0179L30.3182 25.5101L27.4378 24.386L24.3 25.5101L21.9347 35.7202L21.6506 47.2965H27.6688Z" fill="#F8D2AB"/>
<path fill-rule="evenodd" clip-rule="evenodd" d="M21.6507 47.2965L24.3 25.5101L21.6082 24.386L19.065 25.5101L16.4156 47.2965H21.6507Z" fill="#FF9A9F"/>
<path fill-rule="evenodd" clip-rule="evenodd" d="M32.9038 47.2965L35.5531 25.5101L33.2675 24.386L30.3181 25.5101L27.6688 47.2965H32.9038Z" fill="#FF9A9F"/>
<path fill-rule="evenodd" clip-rule="evenodd" d="M24.3 25.5101H19.065L18.6695 28.7736H23.9019L24.3 25.5101Z" fill="#FF8086"/>
<path fill-rule="evenodd" clip-rule="evenodd" d="M30.3182 25.5101H24.3L23.9019 28.7736H29.9227L30.3182 25.5101Z" fill="#FFBB8B"/>
<path fill-rule="evenodd" clip-rule="evenodd" d="M35.5531 25.5101H30.3181L29.9226 28.7736H35.155L35.5531 25.5101Z" fill="#FF8086"/>
<path fill-rule="evenodd" clip-rule="evenodd" d="M17.2545 18.5899C16.6068 12.1241 20.4481 9.41082 24.0424 9.66057C23.7478 8.87663 23.2221 8.17238 22.4868 7.65947C20.5516 6.31744 17.8704 6.80372 16.5298 8.73844L14.998 10.9522L13.9893 8.00766C13.1371 5.55741 10.7718 4.45988 7.68972 5.24382C6.16863 5.63447 5.66416 5.64244 7.08447 6.60713C7.93132 7.18379 8.74103 7.53994 9.02238 7.99697C7.29419 9.03338 6.13413 9.45863 2.1415 9.91566C0.976097 10.0485 2.1415 10.5853 2.66444 10.8857C5.42266 12.4696 6.13413 12.1825 9.06747 11.6617L10.1745 14.8906L11.0133 17.3462L11.1275 17.6757L12.0806 20.4608L12.4867 21.6488C12.5053 21.6993 12.5238 21.7497 12.5451 21.8003H17.5758L17.2545 18.5899Z" fill="#DB885E"/>
<path fill-rule="evenodd" clip-rule="evenodd" d="M30.7296 15.4672L34.3187 12.7778L34.1515 10.8618C34.0825 10.0619 33.7294 9.52499 33.2303 9.35231L33.2223 9.34968L30.5464 8.44077C30.0447 8.27071 29.4394 8.48334 28.8978 9.07593L27.3688 10.7422L23.6337 14.8189C21.3533 17.309 20.9657 19.7778 21.5923 21.8001H27.4166C27.2467 19.9026 27.9582 17.8165 30.1217 15.9536C30.3128 15.7915 30.5146 15.6267 30.7296 15.4672Z" fill="#DB885E"/>
<path fill-rule="evenodd" clip-rule="evenodd" d="M41.0271 21.282L41.797 13.5247C41.8767 12.7248 41.6297 12.1321 41.1705 11.8717L41.1599 11.8663L38.7122 10.4844L38.6989 10.4765C38.2396 10.2187 37.6052 10.3144 36.9628 10.7954L34.3187 12.7779L30.7296 15.4674C30.5146 15.6268 30.3128 15.7915 30.1217 15.9537C27.9582 17.8166 27.2467 19.9029 27.4166 21.8003H28.3484H34.616H40.9634C40.9899 21.6301 41.0112 21.4573 41.0271 21.282Z" fill="#DB885E"/>
<path fill-rule="evenodd" clip-rule="evenodd" d="M34.6639 5.13478C35.6062 5.45371 36.631 4.94878 36.9522 4.00537C37.2734 3.05934 36.7664 2.03353 35.8239 1.71196L33.1374 0.800434C32.195 0.478871 31.1703 0.983809 30.8491 1.92984C30.5279 2.87325 31.0349 3.89906 31.9774 4.22062L30.5464 8.44078L31.8897 8.89518L33.209 9.34696L33.2224 9.34959L33.2303 9.35221L34.6639 5.13478Z" fill="#F1F4F6"/>
<path fill-rule="evenodd" clip-rule="evenodd" d="M17.2545 18.5899C16.6068 12.1241 20.4481 9.41081 24.0425 9.66056C23.7478 8.87662 23.2222 8.17237 22.4869 7.65947C22.4736 7.6515 22.4603 7.64353 22.447 7.63293C18.3535 8.40365 14.7273 12.1773 15.4705 19.6104L15.6909 21.8002H17.5757L17.2545 18.5899Z" fill="#C57142"/>
<path fill-rule="evenodd" clip-rule="evenodd" d="M23.6337 14.8189L27.3688 10.7422C26.8272 10.3862 26.23 10.115 25.6114 9.93701L24.3212 11.3455L21.9745 13.9047C19.5322 16.5702 19.1552 18.4518 19.402 21.8002H21.5921C20.9658 19.7778 21.3534 17.3089 23.6337 14.8189Z" fill="#C57142"/>
<path fill-rule="evenodd" clip-rule="evenodd" d="M30.1217 15.9536C30.3128 15.7915 30.5146 15.6267 30.7296 15.4672L34.3187 12.7778L34.1514 10.8618C34.1461 10.7821 34.1355 10.705 34.1223 10.6306L29.7872 13.8807L29.4925 14.1013C29.1793 14.3352 28.8847 14.5716 28.6086 14.8109C26.0282 17.03 24.8707 19.4722 24.6823 21.8001H27.4166C27.2467 19.9026 27.9581 17.8165 30.1217 15.9536Z" fill="#C57142"/>
<path fill-rule="evenodd" clip-rule="evenodd" d="M41.797 13.5247C41.8767 12.7248 41.6298 12.1321 41.1705 11.8717L41.1599 11.8663L39.9361 11.1727L38.7627 21.2819C38.7414 21.4573 38.7229 21.63 38.699 21.8002H40.9634C41.3484 19.1347 41.5289 16.2274 41.797 13.5247Z" fill="#C57142"/>
<path fill-rule="evenodd" clip-rule="evenodd" d="M9.53474 21.8001C8.73833 21.8001 8.08527 22.4539 8.08527 23.2538V24.059C8.08527 24.8563 8.73833 25.51 9.53474 25.51H42.62H43.2756C44.0747 25.51 44.7251 24.8563 44.7251 24.059V23.2538C44.7251 22.454 44.0747 21.8001 43.2756 21.8001C32.0278 21.8001 20.7826 21.8001 9.53474 21.8001Z" fill="#F1F4F6"/>
<path fill-rule="evenodd" clip-rule="evenodd" d="M18.6695 28.7736L19.065 25.5101H9.96741L10.4931 28.7736H18.6695Z" fill="#FFBB8B"/>
<path fill-rule="evenodd" clip-rule="evenodd" d="M44.7251 23.2538C44.7251 22.454 44.0747 21.8001 43.2757 21.8001C41.7492 21.8001 40.2254 21.8001 38.699 21.8001C39.498 21.8001 40.1511 22.4539 40.1511 23.2538V24.059C40.1511 24.2796 40.1006 24.4895 40.0104 24.6783C39.7767 25.1673 39.2777 25.5101 38.699 25.5101H42.62H43.2757C44.0747 25.5101 44.7251 24.8564 44.7251 24.0591V23.2538Z" fill="#D5CEF7"/>
<path fill-rule="evenodd" clip-rule="evenodd" d="M34.6639 5.13478C35.6062 5.45372 36.631 4.94878 36.9522 4.00538C37.2522 3.1231 36.8301 2.169 36.0045 1.78369C36.1611 2.17435 36.1851 2.61816 36.039 3.04604C35.7549 3.88585 35.0939 3.8566 34.2498 3.73163C33.8702 3.67585 33.8463 3.89907 33.7082 4.29769L32.1021 8.96963L33.2091 9.34697L33.2224 9.3496L33.2303 9.35222L34.6639 5.13478Z" fill="#D5CEF7"/>
<path d="M34.3206 19.5751C34.5005 19.5751 34.6805 19.5065 34.8178 19.3692L34.8257 19.3613C35.1003 19.0866 35.1003 18.6414 34.8257 18.3669C34.5511 18.0924 34.1059 18.0924 33.8314 18.3669L33.8234 18.3748C33.5488 18.6495 33.5488 19.0946 33.8234 19.3692C33.9607 19.5065 34.1407 19.5751 34.3206 19.5751Z" fill="black"/>
<path d="M30.7823 18.3603L30.7744 18.3683C30.5006 18.6436 30.5019 19.0888 30.7772 19.3626C30.9144 19.499 31.0936 19.5671 31.273 19.5671C31.4536 19.5671 31.6342 19.498 31.7716 19.3598L31.7794 19.3518C32.0533 19.0765 32.052 18.6312 31.7766 18.3575C31.5014 18.0837 31.0561 18.0851 30.7823 18.3603Z" fill="black"/>
<path d="M34.2231 16.7064C34.4977 16.4317 34.4977 15.9865 34.2231 15.7119C33.9485 15.4374 33.5032 15.4374 33.2287 15.7119L33.2208 15.7199C32.9462 15.9946 32.9462 16.4397 33.2208 16.7143C33.358 16.8516 33.538 16.9202 33.7179 16.9202C33.8978 16.9202 34.0778 16.8516 34.2151 16.7143L34.2231 16.7064Z" fill="black"/>
<path d="M45.7868 3.68054L45.0553 3.26785C44.486 2.94657 44.0202 2.68388 43.3173 2.28507C42.7337 1.95619 42.0568 1.87482 41.4113 2.05548C40.7657 2.23623 40.2293 2.65735 39.9019 3.24001C39.3416 4.23141 39.5324 5.44726 40.2908 6.22595L38.3609 9.64838C37.7825 9.58613 37.1411 9.78545 36.543 10.2333L34.911 11.4564L34.8538 10.8018C34.7896 10.0577 34.5103 9.44607 34.0761 9.05485L35.1377 5.93148C36.2213 5.97704 37.253 5.30926 37.6198 4.23188C38.0645 2.92219 37.3615 1.49344 36.0508 1.04626C34.9896 0.687663 34.4271 0.496413 33.3663 0.135288C32.7329 -0.0807121 32.0536 -0.0370246 31.4531 0.258475C30.8514 0.554632 30.4011 1.0681 30.1853 1.70354C29.8183 2.78148 30.2309 3.9407 31.12 4.56535L30.0609 7.68882C29.4798 7.73391 28.8859 8.0492 28.3814 8.6012L27.2375 9.8492C26.5428 9.47551 25.7802 9.21048 24.9996 9.07829C24.8407 9.04688 24.6834 9.02345 24.5275 9.00592C24.1575 8.23585 23.5983 7.57651 22.8894 7.08207C21.7992 6.32588 20.4753 6.0407 19.1618 6.27873C17.8485 6.51666 16.7092 7.2482 15.9534 8.3387L15.2139 9.40754L14.6553 7.77695C13.664 4.92666 10.9292 3.69526 7.51669 4.5631C7.39341 4.59479 7.27679 4.62385 7.16748 4.65123C6.29869 4.86826 5.67094 5.0251 5.55751 5.66335C5.43769 6.33751 6.10369 6.78995 6.69057 7.18857C6.97679 7.38348 7.25841 7.5542 7.50685 7.70485C7.60201 7.76251 7.70035 7.82213 7.79597 7.88176C6.5926 8.49723 5.29641 8.84738 2.06363 9.21741C1.82119 9.24516 1.08338 9.32926 0.954944 9.98307C0.819288 10.6735 1.51191 11.0534 2.12307 11.3885C2.19273 11.4266 2.25854 11.4627 2.3161 11.4958C5.10019 13.0946 6.12704 12.9103 8.59969 12.4613L10.35 17.5743V17.5744L11.5565 21.0975H9.53663C8.34976 21.0975 7.38404 22.065 7.38404 23.2542V24.0595C7.38404 25.1908 8.26032 26.1205 9.36919 26.2064L10.5387 33.4699C10.5944 33.8154 10.8929 34.0613 11.232 34.0613C11.2691 34.0613 11.3068 34.0584 11.3447 34.0522C11.728 33.9905 11.9888 33.6296 11.9271 33.2462L10.7947 26.2134H18.273L15.7946 46.5938H14.4424C14.0899 46.5938 13.9989 46.0937 13.9897 46.0369L12.4447 36.4592C12.3828 36.0759 12.0217 35.8149 11.6386 35.877C11.2553 35.9388 10.9945 36.2998 11.0564 36.6832L12.6015 46.261C12.7695 47.3012 13.5093 48 14.4424 48H38.1459C39.0806 48 39.8214 47.3011 39.9895 46.2608L43.2205 26.2136H43.2773C44.4642 26.2136 45.4299 25.2474 45.4299 24.0595V23.2543C45.4299 22.0651 44.4643 21.0976 43.2773 21.0976H41.7536L41.9408 19.2044C41.9791 18.818 41.6968 18.4737 41.3104 18.4355C40.9236 18.3979 40.5797 18.6795 40.5414 19.0659L40.3405 21.0976H28.1C28.156 19.234 29.2006 17.4934 31.1531 16.0303L37.386 11.3588C37.769 11.072 38.1411 10.9688 38.3559 11.0897L40.8261 12.4841C41.0419 12.6072 41.1466 12.9792 41.0992 13.4556L40.8283 16.1796C40.7899 16.566 41.0721 16.9104 41.4584 16.9488C41.8455 16.9874 42.1892 16.705 42.2276 16.3187L42.4984 13.5948C42.5725 12.8504 42.4109 12.1975 42.0571 11.734L43.9859 8.31132C44.3918 8.40704 44.8172 8.39917 45.23 8.28395C45.8742 8.10385 46.4108 7.68329 46.7414 7.0982C47.4178 5.89491 46.9898 4.36201 45.7868 3.68054ZM24.7353 10.4595C24.7422 10.4609 24.7492 10.4621 24.7562 10.4634C25.2715 10.5498 25.7768 10.7078 26.2503 10.9261L23.117 14.3444C21.1769 16.463 20.342 18.8284 20.7091 21.0975H18.2138V21.0974L17.9559 18.5204C17.5777 14.7321 18.8226 12.7351 19.9336 11.727C21.1918 10.5853 22.9869 10.1113 24.7353 10.4595ZM11.4148 16.3425L10.9772 15.0643L12.0009 13.9711C12.2663 13.6877 12.2517 13.2428 11.9683 12.9774C11.6849 12.712 11.24 12.7265 10.9745 13.0101L10.4615 13.5579L9.73454 11.4346C9.62222 11.1066 9.28763 10.9095 8.94638 10.97C8.73901 11.0068 8.54269 11.0424 8.35594 11.0764C6.05888 11.4938 5.42204 11.6091 3.36713 10.4743C6.51347 10.0569 7.72641 9.5956 9.38579 8.60045C9.54694 8.50388 9.66272 8.34676 9.70726 8.16423C9.75179 7.9817 9.72141 7.78885 9.62297 7.62891C9.34257 7.17348 8.82966 6.86251 8.23585 6.5026C7.99088 6.3541 7.73757 6.20045 7.48135 6.02607C7.48013 6.02523 7.47882 6.02429 7.47751 6.02354C7.48782 6.02101 7.49813 6.01829 7.50835 6.01585C7.62047 5.98782 7.74001 5.95791 7.86497 5.92585C10.544 5.2442 12.5861 6.10904 13.326 8.23604L14.3348 11.1806C14.4207 11.4316 14.6407 11.6128 14.9034 11.6492C15.1659 11.6858 15.4271 11.571 15.5781 11.3529L17.1096 9.13951C17.6511 8.3581 18.4689 7.83376 19.4126 7.66266C20.3564 7.49166 21.3066 7.69595 22.0866 8.23679C22.386 8.44567 22.6485 8.6957 22.868 8.9791C21.27 9.14195 19.7881 9.84273 18.6805 10.9845C17.4844 12.2176 16.1451 14.5503 16.5568 18.6606L16.8008 21.0978H13.043L12.8842 20.634L13.9072 19.5415C14.1726 19.2581 14.1579 18.8132 13.8745 18.5478C13.591 18.2825 13.1462 18.2969 12.8807 18.5805L12.3684 19.1276L11.9308 17.8494L12.9542 16.7566C13.2196 16.4732 13.205 16.0283 12.9216 15.7629C12.6382 15.4975 12.1932 15.5119 11.9277 15.7956L11.4148 16.3425ZM17.2112 46.5938L19.6896 26.2135H23.508L21.0296 46.5938H17.2112ZM29.5262 26.2135L27.0478 46.5938H22.4463L24.9247 26.2135H29.5262ZM28.4644 46.5938L30.9428 26.2135H34.7612L32.2828 46.5938H28.4644ZM38.6013 46.0367C38.592 46.0937 38.501 46.5938 38.1459 46.5938H33.6994L36.1778 26.2135H41.7962L38.6013 46.0367ZM40.9649 22.5038C40.9653 22.5038 40.9657 22.5039 40.9661 22.5039C40.9668 22.5039 40.9674 22.5038 40.9682 22.5038H43.2775C43.6891 22.5038 44.0239 22.8405 44.0239 23.2543V24.0595C44.0239 24.4719 43.6891 24.8074 43.2775 24.8074H9.53654C9.12498 24.8074 8.79019 24.4719 8.79019 24.0595V23.2543C8.79019 22.8405 9.12498 22.5038 9.53654 22.5038H40.9649ZM30.3098 14.9049C28.0154 16.6242 26.7533 18.7992 26.6941 21.0975H22.1384C21.8391 19.6563 22.0382 17.6046 24.1538 15.2944L29.4188 9.5506C29.7416 9.19745 30.0878 9.02757 30.323 9.10726L33.0026 10.0173C33.2393 10.0996 33.4118 10.4464 33.4529 10.9234L33.5861 12.4494L30.3098 14.9049ZM32.7926 8.46085L31.4397 8.00138L32.645 4.44685C32.7695 4.07963 32.5732 3.68091 32.2061 3.55566C31.6301 3.35898 31.3207 2.7316 31.5166 2.15626C31.6117 1.87623 31.8096 1.65038 32.074 1.52026C32.337 1.39079 32.6346 1.37157 32.9126 1.46635C33.975 1.82804 34.5382 2.01948 35.5987 2.37779C36.1746 2.57429 36.4839 3.20316 36.2884 3.77916C36.0926 4.35404 35.4658 4.66379 34.891 4.46907C34.5239 4.34485 34.1248 4.54135 33.9999 4.90876L32.7926 8.46085ZM45.5165 6.40763C45.371 6.66498 45.1349 6.85041 44.8516 6.92945C44.5688 7.00848 44.2725 6.97229 44.0168 6.82745C43.8544 6.73529 43.6619 6.71176 43.482 6.76182C43.3021 6.81179 43.1495 6.93132 43.0578 7.09407L40.9052 10.9138L39.6584 10.2099L41.8112 6.39207C42.0017 6.05429 41.8827 5.62604 41.5453 5.43488C41.0153 5.13479 40.8272 4.46045 41.1268 3.93029C41.271 3.67388 41.5066 3.48891 41.7902 3.40941C42.0737 3.3301 42.3709 3.36573 42.6251 3.50898C43.3273 3.90741 43.7939 4.17057 44.3643 4.49241L45.0944 4.90445C45.6244 5.20463 45.8133 5.87963 45.5165 6.40763Z" fill="black"/>
</g>
<path d="M68.24 17.264C69.216 17.536 69.968 18.032 70.496 18.752C71.04 19.472 71.312 20.352 71.312 21.392C71.312 22.832 70.792 23.96 69.752 24.776C68.728 25.592 67.312 26 65.504 26H59.312C58.848 26 58.48 25.872 58.208 25.616C57.952 25.36 57.824 25 57.824 24.536V10.544C57.824 10.08 57.952 9.72 58.208 9.464C58.48 9.208 58.848 9.08 59.312 9.08H65.264C67.024 9.08 68.4 9.472 69.392 10.256C70.4 11.024 70.904 12.104 70.904 13.496C70.904 14.392 70.664 15.168 70.184 15.824C69.72 16.48 69.072 16.96 68.24 17.264ZM60.848 16.208H64.76C66.888 16.208 67.952 15.416 67.952 13.832C67.952 13.032 67.688 12.44 67.16 12.056C66.632 11.672 65.832 11.48 64.76 11.48H60.848V16.208ZM65.168 23.6C66.288 23.6 67.104 23.4 67.616 23C68.128 22.6 68.384 21.976 68.384 21.128C68.384 20.28 68.12 19.648 67.592 19.232C67.08 18.816 66.272 18.608 65.168 18.608H60.848V23.6H65.168ZM80.8068 19.568C81.3668 19.776 81.8148 20.056 82.1508 20.408C82.5028 20.76 82.9108 21.352 83.3748 22.184L84.4308 24.008C84.5748 24.264 84.6468 24.512 84.6468 24.752C84.6468 25.136 84.4948 25.464 84.1908 25.736C83.9028 25.992 83.5588 26.12 83.1588 26.12C82.6148 26.12 82.1988 25.864 81.9108 25.352L80.3988 22.664C80.0628 22.104 79.7348 21.712 79.4148 21.488C79.0948 21.264 78.6308 21.152 78.0228 21.152H77.0868V24.704C77.0868 25.152 76.9508 25.504 76.6788 25.76C76.4068 26.016 76.0388 26.144 75.5748 26.144C75.1108 26.144 74.7428 26.016 74.4708 25.76C74.2148 25.504 74.0868 25.152 74.0868 24.704V15.44C74.0868 15.008 74.2228 14.664 74.4948 14.408C74.7668 14.152 75.1268 14.024 75.5748 14.024C76.0388 14.024 76.4068 14.152 76.6788 14.408C76.9508 14.664 77.0868 15.008 77.0868 15.44V18.92H78.1668L81.5988 14.648C81.9188 14.232 82.2948 14.024 82.7268 14.024C83.0628 14.024 83.3508 14.144 83.5908 14.384C83.8308 14.624 83.9508 14.912 83.9508 15.248C83.9508 15.584 83.8228 15.912 83.5668 16.232L80.8068 19.568ZM95.2284 14.888C95.3564 14.6 95.5244 14.392 95.7324 14.264C95.9564 14.12 96.1964 14.048 96.4524 14.048C96.8204 14.048 97.1484 14.176 97.4364 14.432C97.7404 14.672 97.8924 14.976 97.8924 15.344C97.8924 15.52 97.8444 15.704 97.7484 15.896L91.1964 29.624C90.9244 30.168 90.5004 30.44 89.9244 30.44C89.5564 30.44 89.2284 30.32 88.9404 30.08C88.6684 29.856 88.5324 29.568 88.5324 29.216C88.5324 29.04 88.5804 28.84 88.6764 28.616L90.3084 25.184L85.8444 15.896C85.7644 15.736 85.7244 15.552 85.7244 15.344C85.7244 14.976 85.8764 14.664 86.1804 14.408C86.5004 14.152 86.8604 14.024 87.2604 14.024C87.5324 14.024 87.7804 14.096 88.0044 14.24C88.2284 14.368 88.4044 14.576 88.5324 14.864L91.8924 22.28L95.2284 14.888ZM104.698 26.192C103.53 26.192 102.498 25.944 101.602 25.448C100.722 24.952 100.042 24.248 99.5617 23.336C99.0817 22.424 98.8417 21.36 98.8417 20.144C98.8417 18.928 99.0897 17.856 99.5857 16.928C100.098 15.984 100.81 15.256 101.722 14.744C102.634 14.232 103.682 13.976 104.866 13.976C105.49 13.976 106.114 14.064 106.738 14.24C107.378 14.416 107.938 14.656 108.418 14.96C108.93 15.296 109.186 15.72 109.186 16.232C109.186 16.584 109.098 16.872 108.922 17.096C108.762 17.304 108.546 17.408 108.274 17.408C108.098 17.408 107.914 17.368 107.722 17.288C107.53 17.208 107.338 17.112 107.146 17C106.794 16.792 106.458 16.632 106.138 16.52C105.818 16.392 105.45 16.328 105.034 16.328C104.042 16.328 103.274 16.656 102.73 17.312C102.202 17.952 101.938 18.88 101.938 20.096C101.938 21.296 102.202 22.224 102.73 22.88C103.274 23.52 104.042 23.84 105.034 23.84C105.434 23.84 105.786 23.784 106.09 23.672C106.41 23.544 106.762 23.376 107.146 23.168C107.386 23.024 107.594 22.92 107.77 22.856C107.946 22.776 108.122 22.736 108.298 22.736C108.554 22.736 108.77 22.848 108.946 23.072C109.122 23.296 109.21 23.576 109.21 23.912C109.21 24.184 109.146 24.424 109.018 24.632C108.906 24.824 108.714 25 108.442 25.16C107.946 25.48 107.37 25.736 106.714 25.928C106.058 26.104 105.386 26.192 104.698 26.192ZM112.624 26.144C112.176 26.144 111.816 26.016 111.544 25.76C111.272 25.504 111.136 25.16 111.136 24.728V15.44C111.136 15.008 111.272 14.664 111.544 14.408C111.816 14.152 112.176 14.024 112.624 14.024C113.088 14.024 113.456 14.152 113.728 14.408C114 14.664 114.136 15.008 114.136 15.44V18.824H119.272V15.44C119.272 15.008 119.408 14.664 119.68 14.408C119.952 14.152 120.312 14.024 120.76 14.024C121.224 14.024 121.592 14.152 121.864 14.408C122.136 14.664 122.272 15.008 122.272 15.44L122.296 24.608C122.296 25.072 122.152 25.448 121.864 25.736C121.592 26.008 121.232 26.144 120.784 26.144C120.32 26.144 119.952 26.008 119.68 25.736C119.408 25.448 119.272 25.072 119.272 24.608V21.152H114.136V24.728C114.136 25.16 114 25.504 113.728 25.76C113.456 26.016 113.088 26.144 112.624 26.144ZM130.693 26.192C129.493 26.192 128.437 25.944 127.525 25.448C126.629 24.952 125.933 24.24 125.437 23.312C124.941 22.384 124.693 21.304 124.693 20.072C124.693 18.84 124.941 17.768 125.437 16.856C125.933 15.928 126.629 15.216 127.525 14.72C128.437 14.224 129.493 13.976 130.693 13.976C131.893 13.976 132.941 14.224 133.837 14.72C134.749 15.216 135.445 15.928 135.925 16.856C136.421 17.768 136.669 18.84 136.669 20.072C136.669 21.304 136.421 22.384 135.925 23.312C135.445 24.24 134.749 24.952 133.837 25.448C132.941 25.944 131.893 26.192 130.693 26.192ZM130.669 23.864C131.645 23.864 132.389 23.544 132.901 22.904C133.413 22.264 133.669 21.32 133.669 20.072C133.669 18.84 133.413 17.904 132.901 17.264C132.389 16.608 131.653 16.28 130.693 16.28C129.733 16.28 128.989 16.608 128.461 17.264C127.949 17.904 127.693 18.84 127.693 20.072C127.693 21.32 127.949 22.264 128.461 22.904C128.973 23.544 129.709 23.864 130.669 23.864ZM143.252 26.144C142.788 26.144 142.42 26.016 142.148 25.76C141.876 25.504 141.74 25.16 141.74 24.728V16.52H138.98C138.628 16.52 138.34 16.416 138.116 16.208C137.908 16 137.804 15.728 137.804 15.392C137.804 15.056 137.908 14.784 138.116 14.576C138.34 14.368 138.628 14.264 138.98 14.264H147.5C147.852 14.264 148.132 14.368 148.34 14.576C148.564 14.784 148.676 15.056 148.676 15.392C148.676 15.728 148.564 16 148.34 16.208C148.132 16.416 147.852 16.52 147.5 16.52H144.74V24.728C144.74 25.16 144.604 25.504 144.332 25.76C144.06 26.016 143.7 26.144 143.252 26.144ZM155.437 13.976C157.069 13.976 158.277 14.384 159.061 15.2C159.861 16 160.261 17.224 160.261 18.872V24.728C160.261 25.16 160.133 25.504 159.877 25.76C159.621 26 159.269 26.12 158.821 26.12C158.405 26.12 158.061 25.992 157.789 25.736C157.533 25.48 157.405 25.144 157.405 24.728V24.2C157.133 24.824 156.701 25.312 156.109 25.664C155.533 26.016 154.861 26.192 154.093 26.192C153.309 26.192 152.597 26.032 151.957 25.712C151.317 25.392 150.813 24.952 150.445 24.392C150.077 23.832 149.893 23.208 149.893 22.52C149.893 21.656 150.109 20.976 150.541 20.48C150.989 19.984 151.709 19.624 152.701 19.4C153.693 19.176 155.061 19.064 156.805 19.064H157.405V18.512C157.405 17.728 157.237 17.16 156.901 16.808C156.565 16.44 156.021 16.256 155.269 16.256C154.805 16.256 154.333 16.328 153.853 16.472C153.373 16.6 152.805 16.792 152.149 17.048C151.733 17.256 151.429 17.36 151.237 17.36C150.949 17.36 150.709 17.256 150.517 17.048C150.341 16.84 150.253 16.568 150.253 16.232C150.253 15.96 150.317 15.728 150.445 15.536C150.589 15.328 150.821 15.136 151.141 14.96C151.701 14.656 152.365 14.416 153.133 14.24C153.917 14.064 154.685 13.976 155.437 13.976ZM154.693 24.032C155.493 24.032 156.141 23.768 156.637 23.24C157.149 22.696 157.405 22 157.405 21.152V20.648H156.973C155.901 20.648 155.069 20.696 154.477 20.792C153.885 20.888 153.461 21.056 153.205 21.296C152.949 21.536 152.821 21.864 152.821 22.28C152.821 22.792 152.997 23.216 153.349 23.552C153.717 23.872 154.165 24.032 154.693 24.032Z" fill="#FA5421"/>
<path d="M64.778 35.06C65.0487 35.06 65.2633 35.144 65.422 35.312C65.5807 35.4707 65.66 35.6853 65.66 35.956V44.174C65.66 44.4447 65.576 44.664 65.408 44.832C65.2493 45 65.0393 45.084 64.778 45.084C64.5073 45.084 64.2927 45 64.134 44.832C63.9753 44.664 63.896 44.4447 63.896 44.174V40.716H58.842V44.174C58.842 44.4447 58.758 44.664 58.59 44.832C58.4313 45 58.2167 45.084 57.946 45.084C57.6847 45.084 57.47 45 57.302 44.832C57.1433 44.664 57.064 44.4447 57.064 44.174V35.956C57.064 35.6853 57.1433 35.4707 57.302 35.312C57.4607 35.144 57.6753 35.06 57.946 35.06C58.2167 35.06 58.4313 35.144 58.59 35.312C58.758 35.4707 58.842 35.6853 58.842 35.956V39.26H63.896V35.956C63.896 35.6853 63.9753 35.4707 64.134 35.312C64.2927 35.144 64.5073 35.06 64.778 35.06ZM70.7508 45.112C70.0508 45.112 69.4348 44.9673 68.9028 44.678C68.3801 44.3887 67.9741 43.9733 67.6848 43.432C67.3954 42.8907 67.2508 42.2607 67.2508 41.542C67.2508 40.8233 67.3954 40.198 67.6848 39.666C67.9741 39.1247 68.3801 38.7093 68.9028 38.42C69.4348 38.1307 70.0508 37.986 70.7508 37.986C71.4508 37.986 72.0621 38.1307 72.5848 38.42C73.1168 38.7093 73.5228 39.1247 73.8028 39.666C74.0921 40.198 74.2368 40.8233 74.2368 41.542C74.2368 42.2607 74.0921 42.8907 73.8028 43.432C73.5228 43.9733 73.1168 44.3887 72.5848 44.678C72.0621 44.9673 71.4508 45.112 70.7508 45.112ZM70.7368 43.754C71.3061 43.754 71.7401 43.5673 72.0388 43.194C72.3374 42.8207 72.4868 42.27 72.4868 41.542C72.4868 40.8233 72.3374 40.2773 72.0388 39.904C71.7401 39.5213 71.3108 39.33 70.7508 39.33C70.1908 39.33 69.7568 39.5213 69.4488 39.904C69.1501 40.2773 69.0008 40.8233 69.0008 41.542C69.0008 42.27 69.1501 42.8207 69.4488 43.194C69.7474 43.5673 70.1768 43.754 70.7368 43.754ZM82.3595 38.014C82.6302 38.014 82.8448 38.0887 83.0035 38.238C83.1622 38.3873 83.2415 38.588 83.2415 38.84V44.272C83.2415 44.5053 83.1668 44.7013 83.0175 44.86C82.8682 45.0093 82.6768 45.084 82.4435 45.084C82.2102 45.084 82.0142 45.0093 81.8555 44.86C81.7062 44.7013 81.6315 44.5053 81.6315 44.272L81.6455 40.744L80.2455 43.348C80.1615 43.4973 80.0495 43.6187 79.9095 43.712C79.7695 43.796 79.6155 43.838 79.4475 43.838C79.0928 43.838 78.8222 43.6747 78.6355 43.348L77.2355 40.744L77.2495 44.272C77.2495 44.5053 77.1702 44.7013 77.0115 44.86C76.8622 45.0093 76.6708 45.084 76.4375 45.084C76.2042 45.084 76.0128 45.0093 75.8635 44.86C75.7142 44.7013 75.6395 44.5053 75.6395 44.272V38.896C75.6395 38.6253 75.7095 38.4107 75.8495 38.252C75.9988 38.0933 76.2042 38.014 76.4655 38.014C76.7175 38.014 76.9275 38.056 77.0955 38.14C77.2635 38.2147 77.4128 38.378 77.5435 38.63L79.4475 42.228L81.2815 38.742C81.4308 38.4713 81.5802 38.2847 81.7295 38.182C81.8882 38.07 82.0982 38.014 82.3595 38.014ZM90.4374 43.124C90.596 43.124 90.722 43.1847 90.8154 43.306C90.918 43.4273 90.9694 43.5907 90.9694 43.796C90.9694 44.0853 90.7967 44.328 90.4514 44.524C90.134 44.7013 89.7747 44.846 89.3734 44.958C88.972 45.0607 88.5894 45.112 88.2254 45.112C87.124 45.112 86.2514 44.7947 85.6074 44.16C84.9634 43.5253 84.6414 42.6573 84.6414 41.556C84.6414 40.856 84.7814 40.2353 85.0614 39.694C85.3414 39.1527 85.7334 38.7327 86.2374 38.434C86.7507 38.1353 87.3294 37.986 87.9734 37.986C88.5894 37.986 89.126 38.1213 89.5834 38.392C90.0407 38.6627 90.3954 39.0453 90.6474 39.54C90.8994 40.0347 91.0254 40.618 91.0254 41.29C91.0254 41.6913 90.848 41.892 90.4934 41.892H86.3634C86.4194 42.536 86.6014 43.012 86.9094 43.32C87.2174 43.6187 87.6654 43.768 88.2534 43.768C88.552 43.768 88.8134 43.7307 89.0374 43.656C89.2707 43.5813 89.532 43.4787 89.8214 43.348C90.1014 43.1987 90.3067 43.124 90.4374 43.124ZM88.0154 39.218C87.5394 39.218 87.1567 39.3673 86.8674 39.666C86.5874 39.9647 86.4194 40.394 86.3634 40.954H89.5274C89.5087 40.3847 89.3687 39.9553 89.1074 39.666C88.846 39.3673 88.482 39.218 88.0154 39.218ZM96.3909 37.986C96.9789 37.986 97.5015 38.1353 97.9589 38.434C98.4255 38.7327 98.7849 39.1573 99.0369 39.708C99.2982 40.2493 99.4289 40.8747 99.4289 41.584C99.4289 42.2933 99.2982 42.914 99.0369 43.446C98.7849 43.978 98.4302 44.3887 97.9729 44.678C97.5155 44.9673 96.9882 45.112 96.3909 45.112C95.9055 45.112 95.4715 45.0093 95.0889 44.804C94.7062 44.5987 94.4122 44.314 94.2069 43.95V46.806C94.2069 47.0487 94.1275 47.24 93.9689 47.38C93.8102 47.52 93.6002 47.59 93.3389 47.59C93.0775 47.59 92.8629 47.5153 92.6949 47.366C92.5362 47.2167 92.4569 47.0207 92.4569 46.778V38.84C92.4569 38.588 92.5315 38.3873 92.6809 38.238C92.8395 38.0887 93.0495 38.014 93.3109 38.014C93.5722 38.014 93.7822 38.0887 93.9409 38.238C94.0995 38.3873 94.1789 38.588 94.1789 38.84V39.19C94.3842 38.8073 94.6782 38.5133 95.0609 38.308C95.4529 38.0933 95.8962 37.986 96.3909 37.986ZM95.9289 43.754C96.4795 43.754 96.9089 43.5673 97.2169 43.194C97.5249 42.8113 97.6789 42.2747 97.6789 41.584C97.6789 40.8747 97.5249 40.324 97.2169 39.932C96.9089 39.54 96.4795 39.344 95.9289 39.344C95.3689 39.344 94.9349 39.5353 94.6269 39.918C94.3282 40.3007 94.1789 40.8467 94.1789 41.556C94.1789 42.256 94.3282 42.7973 94.6269 43.18C94.9349 43.5627 95.3689 43.754 95.9289 43.754ZM107.788 45.112C107.088 45.112 106.472 44.9673 105.94 44.678C105.417 44.3887 105.011 43.9733 104.722 43.432C104.433 42.8907 104.288 42.2607 104.288 41.542C104.288 40.8233 104.433 40.198 104.722 39.666C105.011 39.1247 105.417 38.7093 105.94 38.42C106.472 38.1307 107.088 37.986 107.788 37.986C108.488 37.986 109.099 38.1307 109.622 38.42C110.154 38.7093 110.56 39.1247 110.84 39.666C111.129 40.198 111.274 40.8233 111.274 41.542C111.274 42.2607 111.129 42.8907 110.84 43.432C110.56 43.9733 110.154 44.3887 109.622 44.678C109.099 44.9673 108.488 45.112 107.788 45.112ZM107.774 43.754C108.343 43.754 108.777 43.5673 109.076 43.194C109.375 42.8207 109.524 42.27 109.524 41.542C109.524 40.8233 109.375 40.2773 109.076 39.904C108.777 39.5213 108.348 39.33 107.788 39.33C107.228 39.33 106.794 39.5213 106.486 39.904C106.187 40.2773 106.038 40.8233 106.038 41.542C106.038 42.27 106.187 42.8207 106.486 43.194C106.785 43.5673 107.214 43.754 107.774 43.754ZM112.747 46.862C112.504 46.862 112.308 46.7873 112.159 46.638C112.019 46.498 111.949 46.2973 111.949 46.036V44.566C111.939 44.2953 112.009 44.0807 112.159 43.922C112.308 43.7633 112.504 43.684 112.747 43.684H112.901C113.171 43.1987 113.358 42.6527 113.461 42.046C113.573 41.4393 113.629 40.7207 113.629 39.89V39.036C113.619 38.7653 113.689 38.5507 113.839 38.392C113.988 38.2333 114.193 38.154 114.455 38.154H117.913C118.183 38.1447 118.398 38.2147 118.557 38.364C118.715 38.5133 118.795 38.7187 118.795 38.98V43.684H119.019C119.289 43.6747 119.504 43.7447 119.663 43.894C119.821 44.0433 119.901 44.2487 119.901 44.51V46.036C119.901 46.2973 119.826 46.498 119.677 46.638C119.537 46.7873 119.345 46.862 119.103 46.862C118.851 46.862 118.655 46.7873 118.515 46.638C118.375 46.498 118.305 46.2973 118.305 46.036V45H113.559V46.036C113.559 46.2973 113.484 46.498 113.335 46.638C113.195 46.7873 112.999 46.862 112.747 46.862ZM117.059 39.47H115.141V39.89C115.141 40.7767 115.071 41.5467 114.931 42.2C114.8 42.8533 114.613 43.348 114.371 43.684H117.059V39.47ZM125.649 38.686C125.836 38.4247 126.004 38.2473 126.153 38.154C126.312 38.0607 126.527 38.014 126.797 38.014C127.068 38.014 127.283 38.0887 127.441 38.238C127.609 38.3873 127.693 38.588 127.693 38.84V44.23C127.693 44.482 127.614 44.6873 127.455 44.846C127.306 45.0047 127.11 45.084 126.867 45.084C126.615 45.084 126.41 45.0047 126.251 44.846C126.102 44.6873 126.027 44.482 126.027 44.23V40.282L123.059 44.44C122.882 44.692 122.709 44.8647 122.541 44.958C122.383 45.042 122.182 45.084 121.939 45.084C121.669 45.084 121.454 45.0093 121.295 44.86C121.137 44.7107 121.057 44.5053 121.057 44.244V38.854C121.057 38.602 121.132 38.4013 121.281 38.252C121.44 38.0933 121.645 38.014 121.897 38.014C122.14 38.014 122.336 38.0933 122.485 38.252C122.644 38.4013 122.723 38.602 122.723 38.854V42.774L125.649 38.686ZM130.293 45.084C130.031 45.084 129.821 45.0093 129.663 44.86C129.504 44.7107 129.425 44.51 129.425 44.258V38.84C129.425 38.588 129.504 38.3873 129.663 38.238C129.821 38.0887 130.031 38.014 130.293 38.014C130.563 38.014 130.778 38.0887 130.937 38.238C131.095 38.3873 131.175 38.588 131.175 38.84V40.814H134.171V38.84C134.171 38.588 134.25 38.3873 134.409 38.238C134.567 38.0887 134.777 38.014 135.039 38.014C135.309 38.014 135.524 38.0887 135.683 38.238C135.841 38.3873 135.921 38.588 135.921 38.84L135.935 44.188C135.935 44.4587 135.851 44.678 135.683 44.846C135.524 45.0047 135.314 45.084 135.053 45.084C134.782 45.084 134.567 45.0047 134.409 44.846C134.25 44.678 134.171 44.4587 134.171 44.188V42.172H131.175V44.258C131.175 44.51 131.095 44.7107 130.937 44.86C130.778 45.0093 130.563 45.084 130.293 45.084ZM142.352 45C142.081 45.0093 141.866 44.9393 141.708 44.79C141.549 44.6407 141.47 44.4353 141.47 44.174V39.036C141.46 38.7653 141.53 38.5507 141.68 38.392C141.829 38.2333 142.034 38.154 142.296 38.154H144.886C145.66 38.154 146.267 38.308 146.706 38.616C147.154 38.924 147.378 39.358 147.378 39.918C147.378 40.2633 147.275 40.576 147.07 40.856C146.864 41.136 146.57 41.3413 146.188 41.472C146.626 41.5747 146.962 41.7613 147.196 42.032C147.438 42.3027 147.56 42.648 147.56 43.068C147.56 43.6187 147.326 44.0807 146.86 44.454C146.402 44.818 145.758 45 144.928 45H142.352ZM144.592 40.954C144.928 40.954 145.189 40.8793 145.376 40.73C145.562 40.5807 145.656 40.3753 145.656 40.114C145.656 39.5913 145.296 39.33 144.578 39.33H143.206V40.954H144.592ZM144.634 43.824C145.418 43.824 145.81 43.53 145.81 42.942C145.81 42.354 145.418 42.06 144.634 42.06H143.206V43.824H144.634ZM152.833 46.862C152.59 46.862 152.394 46.7873 152.245 46.638C152.105 46.498 152.035 46.2973 152.035 46.036V44.566C152.025 44.2953 152.095 44.0807 152.245 43.922C152.394 43.7633 152.59 43.684 152.833 43.684H152.987C153.257 43.1987 153.444 42.6527 153.547 42.046C153.659 41.4393 153.715 40.7207 153.715 39.89V39.036C153.705 38.7653 153.775 38.5507 153.925 38.392C154.074 38.2333 154.279 38.154 154.541 38.154H157.999C158.269 38.1447 158.484 38.2147 158.643 38.364C158.801 38.5133 158.881 38.7187 158.881 38.98V43.684H159.105C159.375 43.6747 159.59 43.7447 159.749 43.894C159.907 44.0433 159.987 44.2487 159.987 44.51V46.036C159.987 46.2973 159.912 46.498 159.763 46.638C159.623 46.7873 159.431 46.862 159.189 46.862C158.937 46.862 158.741 46.7873 158.601 46.638C158.461 46.498 158.391 46.2973 158.391 46.036V45H153.645V46.036C153.645 46.2973 153.57 46.498 153.421 46.638C153.281 46.7873 153.085 46.862 152.833 46.862ZM157.145 39.47H155.227V39.89C155.227 40.7767 155.157 41.5467 155.017 42.2C154.886 42.8533 154.699 43.348 154.457 43.684H157.145V39.47ZM164.13 45.112C163.43 45.112 162.814 44.9673 162.282 44.678C161.759 44.3887 161.353 43.9733 161.064 43.432C160.774 42.8907 160.63 42.2607 160.63 41.542C160.63 40.8233 160.774 40.198 161.064 39.666C161.353 39.1247 161.759 38.7093 162.282 38.42C162.814 38.1307 163.43 37.986 164.13 37.986C164.83 37.986 165.441 38.1307 165.964 38.42C166.496 38.7093 166.902 39.1247 167.182 39.666C167.471 40.198 167.616 40.8233 167.616 41.542C167.616 42.2607 167.471 42.8907 167.182 43.432C166.902 43.9733 166.496 44.3887 165.964 44.678C165.441 44.9673 164.83 45.112 164.13 45.112ZM164.116 43.754C164.685 43.754 165.119 43.5673 165.418 43.194C165.716 42.8207 165.866 42.27 165.866 41.542C165.866 40.8233 165.716 40.2773 165.418 39.904C165.119 39.5213 164.69 39.33 164.13 39.33C163.57 39.33 163.136 39.5213 162.828 39.904C162.529 40.2773 162.38 40.8233 162.38 41.542C162.38 42.27 162.529 42.8207 162.828 43.194C163.126 43.5673 163.556 43.754 164.116 43.754ZM172.098 45.112C171.417 45.112 170.815 44.9673 170.292 44.678C169.779 44.3887 169.382 43.978 169.102 43.446C168.822 42.914 168.682 42.2933 168.682 41.584C168.682 40.8747 168.827 40.2493 169.116 39.708C169.415 39.1573 169.83 38.7327 170.362 38.434C170.894 38.1353 171.506 37.986 172.196 37.986C172.56 37.986 172.924 38.0373 173.288 38.14C173.662 38.2427 173.988 38.3827 174.268 38.56C174.567 38.756 174.716 39.0033 174.716 39.302C174.716 39.5073 174.665 39.6753 174.562 39.806C174.469 39.9273 174.343 39.988 174.184 39.988C174.082 39.988 173.974 39.9647 173.862 39.918C173.75 39.8713 173.638 39.8153 173.526 39.75C173.321 39.6287 173.125 39.5353 172.938 39.47C172.752 39.3953 172.537 39.358 172.294 39.358C171.716 39.358 171.268 39.5493 170.95 39.932C170.642 40.3053 170.488 40.8467 170.488 41.556C170.488 42.256 170.642 42.7973 170.95 43.18C171.268 43.5533 171.716 43.74 172.294 43.74C172.528 43.74 172.733 43.7073 172.91 43.642C173.097 43.5673 173.302 43.4693 173.526 43.348C173.666 43.264 173.788 43.2033 173.89 43.166C173.993 43.1193 174.096 43.096 174.198 43.096C174.348 43.096 174.474 43.1613 174.576 43.292C174.679 43.4227 174.73 43.586 174.73 43.782C174.73 43.9407 174.693 44.0807 174.618 44.202C174.553 44.314 174.441 44.4167 174.282 44.51C173.993 44.6967 173.657 44.846 173.274 44.958C172.892 45.0607 172.5 45.112 172.098 45.112ZM178.332 45.084C178.062 45.084 177.847 45.0093 177.688 44.86C177.53 44.7107 177.45 44.51 177.45 44.258V39.47H175.84C175.635 39.47 175.467 39.4093 175.336 39.288C175.215 39.1667 175.154 39.008 175.154 38.812C175.154 38.616 175.215 38.4573 175.336 38.336C175.467 38.2147 175.635 38.154 175.84 38.154H180.81C181.016 38.154 181.179 38.2147 181.3 38.336C181.431 38.4573 181.496 38.616 181.496 38.812C181.496 39.008 181.431 39.1667 181.3 39.288C181.179 39.4093 181.016 39.47 180.81 39.47H179.2V44.258C179.2 44.51 179.121 44.7107 178.962 44.86C178.804 45.0093 178.594 45.084 178.332 45.084ZM185.441 37.986C186.393 37.986 187.097 38.224 187.555 38.7C188.021 39.1667 188.255 39.8807 188.255 40.842V44.258C188.255 44.51 188.18 44.7107 188.031 44.86C187.881 45 187.676 45.07 187.415 45.07C187.172 45.07 186.971 44.9953 186.813 44.846C186.663 44.6967 186.589 44.5007 186.589 44.258V43.95C186.43 44.314 186.178 44.5987 185.833 44.804C185.497 45.0093 185.105 45.112 184.657 45.112C184.199 45.112 183.784 45.0187 183.41 44.832C183.037 44.6453 182.743 44.3887 182.529 44.062C182.314 43.7353 182.207 43.3713 182.207 42.97C182.207 42.466 182.333 42.0693 182.585 41.78C182.846 41.4907 183.266 41.2807 183.845 41.15C184.423 41.0193 185.221 40.954 186.239 40.954H186.589V40.632C186.589 40.1747 186.491 39.8433 186.295 39.638C186.099 39.4233 185.781 39.316 185.343 39.316C185.072 39.316 184.797 39.358 184.517 39.442C184.237 39.5167 183.905 39.6287 183.523 39.778C183.28 39.8993 183.103 39.96 182.991 39.96C182.823 39.96 182.683 39.8993 182.571 39.778C182.468 39.6567 182.417 39.498 182.417 39.302C182.417 39.1433 182.454 39.008 182.529 38.896C182.613 38.7747 182.748 38.6627 182.935 38.56C183.261 38.3827 183.649 38.2427 184.097 38.14C184.554 38.0373 185.002 37.986 185.441 37.986ZM185.007 43.852C185.473 43.852 185.851 43.698 186.141 43.39C186.439 43.0727 186.589 42.6667 186.589 42.172V41.878H186.337C185.711 41.878 185.226 41.906 184.881 41.962C184.535 42.018 184.288 42.116 184.139 42.256C183.989 42.396 183.915 42.5873 183.915 42.83C183.915 43.1287 184.017 43.376 184.223 43.572C184.437 43.7587 184.699 43.852 185.007 43.852ZM190.873 45C190.602 45.0093 190.388 44.9393 190.229 44.79C190.07 44.6407 189.991 44.4353 189.991 44.174V39.036C189.982 38.7653 190.052 38.5507 190.201 38.392C190.35 38.2333 190.556 38.154 190.817 38.154H193.407C194.182 38.154 194.788 38.308 195.227 38.616C195.675 38.924 195.899 39.358 195.899 39.918C195.899 40.2633 195.796 40.576 195.591 40.856C195.386 41.136 195.092 41.3413 194.709 41.472C195.148 41.5747 195.484 41.7613 195.717 42.032C195.96 42.3027 196.081 42.648 196.081 43.068C196.081 43.6187 195.848 44.0807 195.381 44.454C194.924 44.818 194.28 45 193.449 45H190.873ZM193.113 40.954C193.449 40.954 193.71 40.8793 193.897 40.73C194.084 40.5807 194.177 40.3753 194.177 40.114C194.177 39.5913 193.818 39.33 193.099 39.33H191.727V40.954H193.113ZM193.155 43.824C193.939 43.824 194.331 43.53 194.331 42.942C194.331 42.354 193.939 42.06 193.155 42.06H191.727V43.824H193.155ZM201.529 41.248C201.856 41.3693 202.117 41.5327 202.313 41.738C202.519 41.9433 202.757 42.2887 203.027 42.774L203.643 43.838C203.727 43.9873 203.769 44.132 203.769 44.272C203.769 44.496 203.681 44.6873 203.503 44.846C203.335 44.9953 203.135 45.07 202.901 45.07C202.584 45.07 202.341 44.9207 202.173 44.622L201.291 43.054C201.095 42.7273 200.904 42.4987 200.717 42.368C200.531 42.2373 200.26 42.172 199.905 42.172H199.359V44.244C199.359 44.5053 199.28 44.7107 199.121 44.86C198.963 45.0093 198.748 45.084 198.477 45.084C198.207 45.084 197.992 45.0093 197.833 44.86C197.684 44.7107 197.609 44.5053 197.609 44.244V38.84C197.609 38.588 197.689 38.3873 197.847 38.238C198.006 38.0887 198.216 38.014 198.477 38.014C198.748 38.014 198.963 38.0887 199.121 38.238C199.28 38.3873 199.359 38.588 199.359 38.84V40.87H199.989L201.991 38.378C202.178 38.1353 202.397 38.014 202.649 38.014C202.845 38.014 203.013 38.084 203.153 38.224C203.293 38.364 203.363 38.532 203.363 38.728C203.363 38.924 203.289 39.1153 203.139 39.302L201.529 41.248ZM210.586 43.124C210.744 43.124 210.87 43.1847 210.964 43.306C211.066 43.4273 211.118 43.5907 211.118 43.796C211.118 44.0853 210.945 44.328 210.6 44.524C210.282 44.7013 209.923 44.846 209.522 44.958C209.12 45.0607 208.738 45.112 208.374 45.112C207.272 45.112 206.4 44.7947 205.756 44.16C205.112 43.5253 204.79 42.6573 204.79 41.556C204.79 40.856 204.93 40.2353 205.21 39.694C205.49 39.1527 205.882 38.7327 206.386 38.434C206.899 38.1353 207.478 37.986 208.122 37.986C208.738 37.986 209.274 38.1213 209.732 38.392C210.189 38.6627 210.544 39.0453 210.796 39.54C211.048 40.0347 211.174 40.618 211.174 41.29C211.174 41.6913 210.996 41.892 210.642 41.892H206.512C206.568 42.536 206.75 43.012 207.058 43.32C207.366 43.6187 207.814 43.768 208.402 43.768C208.7 43.768 208.962 43.7307 209.186 43.656C209.419 43.5813 209.68 43.4787 209.97 43.348C210.25 43.1987 210.455 43.124 210.586 43.124ZM208.164 39.218C207.688 39.218 207.305 39.3673 207.016 39.666C206.736 39.9647 206.568 40.394 206.512 40.954H209.676C209.657 40.3847 209.517 39.9553 209.256 39.666C208.994 39.3673 208.63 39.218 208.164 39.218Z" fill="#D3D3D3"/>
<defs>
<clipPath id="clip0">
<rect width="48" height="48" fill="white"/>
</clipPath>
</defs>
</svg>
