<svg width="50" height="48" viewBox="0 0 50 48" fill="none" xmlns="http://www.w3.org/2000/svg">
<path fill-rule="evenodd" clip-rule="evenodd" d="M45.4445 12.8426C46.3666 11.6175 48.0009 9.13547 47.4056 7.46653C46.6509 5.34853 42.8535 3.68494 40.9401 3.0046C36.1967 1.31972 30.5762 0.70322 25.5617 0.70322C20.5472 0.70322 14.9293 1.31972 10.1832 3.0046C8.27249 3.68494 4.47242 5.34853 3.71764 7.46653C3.12242 9.13547 4.75667 11.6175 5.6788 12.8426L6.8082 14.3468V43.6801V45.2985V46.792C6.8082 47.071 7.03677 47.297 7.31314 47.297H43.8128C44.0892 47.297 44.315 47.0711 44.315 46.792V45.2985V43.6801V14.3468L45.4445 12.8426Z" fill="#F8D2AB"/>
<path fill-rule="evenodd" clip-rule="evenodd" d="M44.315 43.6801V14.3467L45.4444 12.8426C46.3665 11.6175 48.0009 9.13547 47.4055 7.46653C46.6509 5.34853 42.8534 3.68494 40.9401 3.0046C39.2792 2.41463 37.512 1.9575 35.6996 1.60941C34.2594 9.72806 31.1794 19.4411 26.6086 29.4519C23.5871 36.0691 20.2388 42.1096 16.8133 47.2969H43.8128C44.0891 47.2969 44.315 47.0711 44.315 46.792V45.2985V43.6801Z" fill="#FFBB8B"/>
<path fill-rule="evenodd" clip-rule="evenodd" d="M23.813 8.91487C20.6985 7.68975 17.1508 8.89631 15.5272 12.0374C15.1206 12.8241 14.932 13.6904 14.9213 14.57L25.1098 23.5655L35.0752 24.982C35.7847 24.4638 36.3826 23.8074 36.7892 23.0208C37.225 22.1783 37.4668 21.3014 37.5333 20.4377C37.5678 19.9673 37.5546 19.5022 37.4881 19.0451C37.2595 17.4241 36.4198 15.9306 35.0964 14.8623C34.921 14.7187 34.735 14.5833 34.5383 14.4557C35.5535 12.343 35.4738 10.4242 34.7482 8.90418C32.8482 4.926 26.5182 3.69553 23.813 8.91487Z" fill="#B3E59F"/>
<path fill-rule="evenodd" clip-rule="evenodd" d="M32.7525 16.1379C32.5373 18.5722 31.8304 20.8231 30.7621 22.7551L33.0954 23.9589L35.0752 24.982C35.7847 24.4638 36.3826 23.8074 36.7892 23.0208C37.2251 22.1783 37.4669 21.3014 37.5333 20.4377C37.5678 19.9673 37.5546 19.5023 37.4881 19.0451C37.2596 17.4241 36.4199 15.9306 35.0965 14.8623C34.9211 14.7188 34.7351 14.5833 34.5384 14.4557C35.5535 12.343 35.4738 10.4243 34.7483 8.90419C33.8608 7.04925 32.0138 5.79225 30.0181 5.50528C32.0324 8.31956 33.106 12.0959 32.7525 16.1379Z" fill="#95D6A4"/>
<path fill-rule="evenodd" clip-rule="evenodd" d="M35.4552 32.7472C32.7605 32.6835 30.523 34.8121 30.4566 37.5068C30.3902 40.2015 32.5215 42.4391 35.216 42.5056C37.9107 42.5694 40.1482 40.4408 40.2146 37.746C40.2785 35.0512 38.1471 32.8136 35.4552 32.7472Z" fill="#FF8086"/>
<path fill-rule="evenodd" clip-rule="evenodd" d="M2.47135 28.1179C2.31188 36.0717 8.05725 42.3062 16.2102 39.5929C18.3096 38.894 19.803 38.8223 22.8298 40.3688C31.1103 44.5916 40.1588 36.2364 35.8804 25.2025C34.0176 20.3951 30.7303 17.4002 26.2366 15.213C14.3554 9.43575 2.72382 15.3885 2.47135 28.1179Z" fill="#F1F4F6"/>
<path fill-rule="evenodd" clip-rule="evenodd" d="M36.7839 32.9651H36.7865H36.7839ZM15.1126 13.127C15.11 13.127 15.11 13.127 15.11 13.1296C15.11 13.127 15.1126 13.127 15.1126 13.127ZM29.3617 24.1688C29.7072 24.8146 30.0208 25.5003 30.2998 26.2257C32.9891 33.1617 30.4114 39.0401 26.0692 41.4C27.9586 41.6551 29.7896 41.3203 31.3973 40.5098C34.0999 39.1464 36.1647 36.4411 36.7865 32.9651C37.1957 30.6611 36.9725 28.0195 35.8803 25.2026C35.7953 24.9794 35.7049 24.7588 35.6119 24.5436C34.7324 22.4947 33.5763 20.7912 32.1626 19.3455C31.8304 19.0027 31.4822 18.6758 31.1208 18.3623C29.7045 17.1319 28.0701 16.1061 26.2365 15.2131C22.3753 13.3343 18.5379 12.6965 15.1126 13.127C13.8583 13.2837 12.6571 13.5867 11.533 14.0226C12.6358 14.0172 13.7731 14.1156 14.9292 14.3282C16.8 14.6683 18.724 15.2955 20.6559 16.2363C24.2992 18.0088 27.1506 20.3155 29.0932 23.6852C29.1837 23.8447 29.2741 24.0068 29.3617 24.1688Z" fill="#D5CEF7"/>
<path fill-rule="evenodd" clip-rule="evenodd" d="M14.8655 21.0862C11.573 21.0065 8.83849 23.6108 8.75871 26.9034C8.67902 30.1934 11.2832 32.928 14.5758 33.0077C17.8684 33.0874 20.6002 30.4831 20.6799 27.1931C20.7597 23.9004 18.158 21.1658 14.8655 21.0862Z" fill="#FFE07D"/>
<path fill-rule="evenodd" clip-rule="evenodd" d="M12.8087 21.3971C15.2162 22.2103 16.925 24.517 16.8586 27.1931C16.7974 29.7655 15.1127 31.9181 12.8087 32.6968C13.364 32.8855 13.9566 32.9917 14.5758 33.0078C17.8683 33.0874 20.6002 30.4832 20.6799 27.1932C20.7596 23.9006 18.158 21.166 14.8654 21.0863C14.1453 21.0676 13.4518 21.1792 12.8087 21.3971Z" fill="#FFC77D"/>
<path d="M14.7223 33.7126C18.3229 33.7126 21.2952 30.8287 21.3828 27.2102C21.4718 23.5348 18.5557 20.4723 14.8825 20.3833C13.1034 20.3415 11.4118 20.9929 10.1224 22.2212C8.83283 23.4495 8.09896 25.1063 8.05583 26.8866C8.0128 28.6657 8.6654 30.3554 9.89371 31.6446C11.1221 32.9339 12.7789 33.6677 14.5589 33.7108C14.6135 33.7119 14.6678 33.7126 14.7223 33.7126ZM9.46161 26.9204C9.49565 25.5158 10.0747 24.2084 11.0923 23.2392C12.0783 22.3 13.3611 21.7874 14.7178 21.7874C14.7612 21.7874 14.805 21.788 14.8485 21.7891C17.7466 21.8592 20.0473 24.2758 19.977 27.1761C19.9079 30.0312 17.5629 32.3065 14.7218 32.3063C14.679 32.3063 14.6359 32.3059 14.5928 32.3048C13.1884 32.2708 11.881 31.6917 10.9117 30.6743C9.94265 29.6572 9.42768 28.324 9.46161 26.9204Z" fill="black"/>
<path d="M17.8525 42.0283C17.4642 42.0283 17.1494 42.343 17.1494 42.7314C17.1494 43.1199 17.4642 43.4346 17.8525 43.4346H17.8684C18.2567 43.4346 18.5715 43.1199 18.5715 42.7314C18.5715 42.343 18.2567 42.0283 17.8684 42.0283H17.8525Z" fill="black"/>
<path d="M40.2014 26.2459H40.2147C40.6031 26.2459 40.9178 25.9312 40.9178 25.5428C40.9178 25.1543 40.6031 24.8396 40.2147 24.8396H40.2014C39.8129 24.8396 39.4982 25.1543 39.4982 25.5428C39.4982 25.9312 39.8129 26.2459 40.2014 26.2459Z" fill="black"/>
<path d="M48.0678 7.23047C47.1702 4.71113 42.9488 2.97263 41.1754 2.34197C35.7259 0.406408 29.6766 9.53674e-05 25.5616 9.53674e-05C21.4482 9.53674e-05 15.4004 0.406408 9.9473 2.34216C8.17383 2.97366 3.95199 4.71413 3.05536 7.23028C2.39611 9.07856 3.81268 11.5325 5.11655 13.2648L6.10505 14.5813V16.7833C5.37239 17.5449 4.71333 18.3995 4.14155 19.346C3.94074 19.6783 4.04743 20.1106 4.37986 20.3114C4.7123 20.5122 5.14449 20.4055 5.34521 20.0731C9.26002 13.5926 17.7244 11.8541 25.929 15.8453C30.6135 18.1253 33.5674 21.1793 35.2247 25.4568C37.575 31.5179 35.6247 36.1954 33.0157 38.5517C30.2997 41.0047 26.5192 41.4611 23.1497 39.7427C19.943 38.104 18.222 38.1821 15.9882 38.9257C12.7392 40.0069 9.76664 39.6542 7.39186 37.9051C4.66852 35.8994 3.09193 32.2459 3.17443 28.1313C3.20949 26.3196 3.48568 24.6082 3.99558 23.0447C4.11596 22.6755 3.9143 22.2787 3.54511 22.1582C3.17593 22.0379 2.77908 22.2395 2.65861 22.6087C2.10558 24.3044 1.80605 26.1533 1.76836 28.1036C1.68136 32.4454 3.29386 36.3501 6.10514 38.6813V46.7918C6.10514 47.4579 6.64711 47.9999 7.31321 47.9999H43.8128C44.4775 47.9999 45.0181 47.458 45.0181 46.7918V32.2609C45.0181 31.8725 44.7034 31.5577 44.315 31.5577C43.9266 31.5577 43.6119 31.8725 43.6119 32.2609V46.5938H7.51139V39.6562C10.0735 41.1161 13.1969 41.3368 16.4323 40.2601C18.4132 39.6006 19.6954 39.557 22.5104 40.9954C24.0732 41.7923 25.7133 42.1841 27.3215 42.184C28.6582 42.184 29.9724 41.9122 31.2015 41.3786C32.0095 42.2713 33.0985 42.8854 34.2815 43.1106C34.6279 43.1765 34.9807 43.2101 35.3333 43.2101C38.3505 43.2101 40.8428 40.7938 40.9175 37.7628C40.9717 35.4861 39.6216 33.4088 37.573 32.5112C37.8693 30.3002 37.6232 27.7529 36.5359 24.9487C36.505 24.8688 36.4726 24.7904 36.4409 24.7114C36.8352 24.2917 37.1622 23.8335 37.4137 23.3438C38.2709 21.6858 38.4797 19.8103 38.0022 18.0627C37.5861 16.54 36.6758 15.1935 35.4126 14.216C36.1268 12.4498 36.1917 10.6931 35.5953 9.10359C35.0116 7.54781 33.8312 6.26269 32.2712 5.48466C29.457 4.08122 25.6276 4.55663 23.4886 8.05875C21.9661 7.59919 20.3475 7.63791 18.8694 8.17856C17.1683 8.80088 15.7595 10.0567 14.9031 11.7135C14.7733 11.9636 14.6627 12.2273 14.5688 12.4993C11.934 12.9007 9.52074 13.9154 7.5113 15.5061V14.3468C7.5113 14.1945 7.46189 14.0464 7.37049 13.9246L6.24061 12.4199C4.73536 10.4198 4.03974 8.65641 4.37996 7.7026C4.94789 6.10885 7.98802 4.53263 10.4183 3.66731C15.6822 1.7986 21.5587 1.40635 25.5616 1.40635C29.5662 1.40635 35.4439 1.7986 40.7045 3.66703C43.1348 4.53122 46.1745 6.1065 46.7432 7.70269C47.0835 8.6565 46.3879 10.4198 44.8821 12.4205L43.7527 13.9246C43.6612 14.0464 43.6118 14.1945 43.6118 14.3468V29.0134C43.6118 29.4018 43.9265 29.7165 44.3149 29.7165C44.7033 29.7165 45.018 29.4018 45.018 29.0134V14.5813L46.0061 13.2654C47.3106 11.5325 48.7271 9.07856 48.0678 7.23047ZM37.2975 33.938C38.6673 34.6693 39.5497 36.134 39.5117 37.7287C39.4558 39.9961 37.5909 41.8039 35.334 41.8039C34.8052 41.8039 34.2764 41.7033 33.785 41.5077C33.5445 41.4119 33.3129 41.2935 33.0945 41.1545C33.0384 41.1188 32.477 40.7307 32.5018 40.695C33.0098 40.3779 33.4973 40.0118 33.9584 39.5955C35.4076 38.2864 36.6818 36.357 37.2975 33.938ZM23.5557 9.56916C23.8909 9.70097 24.2716 9.55809 24.4374 9.23831C26.1598 5.91347 29.3804 5.61441 31.6438 6.74306C33.9792 7.90772 35.5839 10.6503 33.9044 14.1516C33.7519 14.4696 33.8584 14.8511 34.1535 15.0442C36.7375 16.7343 37.5834 19.9532 36.1637 22.6995C36.0602 22.9009 35.9387 23.0955 35.802 23.2834C34.0763 19.8192 31.4172 17.1806 27.5832 15.1141L27.9633 14.4365L30.3345 14.1189C30.7194 14.0674 30.9897 13.7137 30.9381 13.3287C30.8865 12.9438 30.531 12.6739 30.1479 12.7252L28.824 12.9024L29.7887 11.183C29.9787 10.8443 29.8582 10.4157 29.5196 10.2257C29.181 10.0358 28.7524 10.1562 28.5623 10.4948L27.5728 12.2586L27.0996 11.267C26.9325 10.9166 26.5128 10.768 26.1622 10.9353C25.8118 11.1024 25.6633 11.5223 25.8305 11.8727L26.7308 13.7593L26.3278 14.4776C22.8818 12.8417 19.3934 12.1483 16.1669 12.3328C17.5931 9.60628 20.6948 8.44397 23.5557 9.56916Z" fill="black"/>
<path d="M12.7501 6.6465C12.3618 6.6465 12.047 6.96122 12.047 7.34963C12.047 7.73803 12.3618 8.05275 12.7501 8.05275H12.7661C13.1544 8.05275 13.4692 7.73803 13.4692 7.34963C13.4692 6.96122 13.1544 6.6465 12.7661 6.6465H12.7501Z" fill="black"/>
<path d="M39.0879 8.59444H39.0746C38.6862 8.59444 38.3715 8.90916 38.3715 9.29756C38.3715 9.68597 38.6862 10.0007 39.0746 10.0007H39.0879C39.4763 10.0007 39.791 9.68597 39.791 9.29756C39.791 8.90916 39.4763 8.59444 39.0879 8.59444Z" fill="black"/>
<path d="M21.0838 3.80822C20.6955 3.80822 20.3807 4.12294 20.3807 4.51134C20.3807 4.89975 20.6955 5.21447 21.0838 5.21447H21.0971C21.4854 5.21447 21.8002 4.89975 21.8002 4.51134C21.8002 4.12294 21.4854 3.80822 21.0971 3.80822H21.0838Z" fill="black"/>
</svg>
