<svg width="48" height="48" viewBox="0 0 48 48" fill="none" xmlns="http://www.w3.org/2000/svg">
<g clip-path="url(#clip0)">
<path fill-rule="evenodd" clip-rule="evenodd" d="M12.4148 9.72038C12.4148 13.6908 15.636 16.9063 19.6074 16.9063C23.5789 16.9063 26.8001 13.6907 26.8001 9.72038C26.8001 8.47135 25.776 7.44816 24.5258 7.44816C20.299 7.44816 19.9639 7.44816 14.689 7.44816C13.4389 7.44816 12.4148 8.47135 12.4148 9.72038Z" fill="#FF9A9F"/>
<path fill-rule="evenodd" clip-rule="evenodd" d="M4.99329 10.1827C3.69785 13.6668 5.67691 17.8312 9.1616 19.1254C10.1139 17.8604 11.9333 16.9781 14.8354 16.909C16.4607 16.8692 17.405 16.9196 19.6075 16.9064C15.6361 16.9064 12.4148 13.6908 12.4148 9.72046C12.4148 8.47143 13.4389 7.44825 14.6891 7.44825H12.2711C9.24138 7.44815 6.79947 8.51915 4.99329 10.1827Z" fill="#F8D2AB"/>
<path fill-rule="evenodd" clip-rule="evenodd" d="M1.59644 21.7909C3.24035 24.1402 6.13713 25.0065 8.73325 23.7069C8.12941 22.0832 8.1986 20.4089 9.1615 19.1254C5.67691 17.8312 3.69785 13.6668 4.99319 10.1827C1.83579 13.0927 0.617505 17.8099 1.59644 21.7909Z" fill="#F8D2AB"/>
<path fill-rule="evenodd" clip-rule="evenodd" d="M10.9476 28.2888C10.2746 29.0569 7.68049 28.5576 6.36612 27.9141C3.79896 26.6541 2.2324 24.3795 1.59668 21.7906C2.94724 23.7211 5.14212 24.6491 7.32209 24.2C7.7959 24.1023 8.26962 23.9396 8.73321 23.7071C9.00968 24.4482 9.42762 25.182 9.96743 25.8599C10.0419 25.9529 10.1164 26.0459 10.1964 26.1361C10.2168 26.1593 10.2373 26.1826 10.256 26.2058C11.1533 27.2687 11.2687 27.9224 10.9476 28.2888Z" fill="#F8D2AB"/>
<path fill-rule="evenodd" clip-rule="evenodd" d="M20.5332 10.0658C21.584 10.0658 22.4351 9.21543 22.4351 8.16571C22.4351 7.91324 22.3872 7.67136 22.2968 7.44815C22.0122 6.75449 21.3312 6.26558 20.5332 6.26558C19.7378 6.26558 19.0542 6.75458 18.7723 7.44815C18.6818 7.67136 18.6313 7.91324 18.6313 8.16571C18.6312 9.21543 19.4825 10.0658 20.5332 10.0658Z" fill="#EFECFF"/>
<path fill-rule="evenodd" clip-rule="evenodd" d="M10.9476 28.2888H10.9466C8.88862 26.3732 7.65159 24.7533 7.32206 24.2C7.32112 24.2 7.32112 24.199 7.32112 24.199C7.29974 24.1637 7.28671 24.1404 7.28109 24.1349C4.99593 21.2569 6.37077 17.8022 6.61837 17.4322C7.32112 18.1715 8.18306 18.761 9.16134 19.1256C8.1989 20.4088 8.12906 22.0836 8.73318 23.7072C9.00965 24.4483 9.42759 25.1821 9.9674 25.86C10.0418 25.953 10.1164 26.046 10.1963 26.1362C10.2168 26.1594 10.2373 26.1827 10.256 26.2059C11.1532 27.2687 11.2687 27.9224 10.9476 28.2888Z" fill="#FFBB8B"/>
<path fill-rule="evenodd" clip-rule="evenodd" d="M9.1615 19.1254C10.1138 17.8604 11.9332 16.9781 14.8353 16.909C16.4606 16.8692 17.4049 16.9196 19.6074 16.9064C17.8199 16.9064 16.1866 16.2553 14.9284 15.179C11.489 15.1497 9.0684 14.8787 6.62115 17.4325C7.32344 18.1714 8.18265 18.7613 9.1615 19.1254Z" fill="#FFBB8B"/>
<path fill-rule="evenodd" clip-rule="evenodd" d="M19.6075 16.9063C23.579 16.9063 26.8002 13.6907 26.8002 9.72038C26.8002 8.47135 25.7761 7.44816 24.5259 7.44816H24.0471C24.0923 7.62356 24.1163 7.80957 24.1163 7.99828C24.1163 11.966 20.8951 15.1816 16.9236 15.1816C16.123 15.1869 15.4899 15.1842 14.9286 15.179C16.1867 16.2552 17.82 16.9063 19.6075 16.9063Z" fill="#FF8086"/>
<path fill-rule="evenodd" clip-rule="evenodd" d="M7.86348 31.7407L10.2495 33.7578C10.3719 33.8615 10.3719 33.8295 10.4729 33.7126L11.7737 32.1739L14.6093 28.8254L15.6893 27.5525C16.0723 27.1007 16.1149 27.2256 15.6813 26.8588L13.5346 25.0437C12.6115 24.2624 11.2204 24.3793 10.4383 25.3015L9.96751 25.8596L7.81023 28.4242L7.60277 28.65C6.79145 29.5402 6.94042 30.9621 7.86348 31.7407Z" fill="#FF9A9F"/>
<path fill-rule="evenodd" clip-rule="evenodd" d="M12.3324 26.4655L14.4817 28.2806C14.7184 28.4826 14.8115 28.5357 14.7876 28.6155L15.6894 27.5525C16.0724 27.1007 16.115 27.2256 15.6814 26.8588L13.5347 25.0437C12.6116 24.2624 11.2205 24.3793 10.4384 25.3015L9.96761 25.8596L9.2388 26.7233C9.49146 26.4257 9.80805 26.2131 10.1539 26.0856C10.872 25.8224 11.7099 25.9393 12.3324 26.4655Z" fill="#FF8086"/>
<path d="M30.5065 6.72C30.5065 5.51297 29.8979 3.8955 26.9976 3.04481L16.682 0.0284974C16.3092 -0.0805339 15.9188 0.133404 15.8098 0.50606C15.7008 0.87881 15.9145 1.26928 16.2874 1.37831L26.6023 4.39443C28.2599 4.88062 29.1003 5.66306 29.1003 6.72009C29.1003 7.78022 28.3774 8.6745 27.3982 8.93812C27.0534 7.67597 25.8968 6.74512 24.5258 6.74512H22.7144C22.2489 6.03384 21.4453 5.56247 20.5331 5.56247C19.6209 5.56247 18.8173 6.03375 18.3518 6.74512H14.689H12.271C9.60994 6.74512 7.16794 7.55231 5.20866 9.0795C3.44325 10.4557 2.09428 12.3763 1.30744 14.634C1.17966 15.0007 1.37325 15.4015 1.74 15.5293C1.8165 15.556 1.8946 15.5687 1.97138 15.5687C2.26219 15.5687 2.53425 15.3869 2.63532 15.0967C2.96241 14.1581 3.38691 13.3014 3.89663 12.5347C3.91182 13.6294 4.16307 14.7395 4.64813 15.7738C5.39803 17.3726 6.64791 18.6728 8.14557 19.4422C8.13047 19.4728 8.11463 19.5028 8.10019 19.5337C7.57378 20.659 7.50938 21.9808 7.87003 23.314C5.81382 24.0667 3.62494 23.3737 2.247 21.4901C2.0116 20.4831 1.92132 19.402 1.9921 18.2766C2.01647 17.889 1.722 17.5551 1.33444 17.5307C0.945941 17.5071 0.612941 17.8008 0.588566 18.1883C0.299909 22.7819 2.39485 26.7504 6.05822 28.5462C6.24028 28.6347 6.4426 28.7199 6.65672 28.8001C6.44166 29.2335 6.34341 29.722 6.3766 30.228C6.42863 31.0207 6.80522 31.768 7.40935 32.2776L9.79491 34.2943C9.87132 34.359 10.0657 34.5235 10.3529 34.5235C10.3744 34.5235 10.3962 34.5226 10.4187 34.5206C10.7364 34.4932 10.9083 34.2874 10.9817 34.1995L12.3101 32.6282C12.9913 31.8238 13.3103 31.4476 13.5606 31.1525C13.9282 30.7191 14.1474 30.4604 15.1452 29.2802L16.2253 28.0071C16.2829 27.9391 16.3319 27.8859 16.3716 27.8428C16.5093 27.693 16.7172 27.4666 16.6927 27.1149C16.6678 26.7606 16.4353 26.5695 16.2485 26.4159C16.2155 26.3888 16.1778 26.3579 16.1351 26.3218L13.9888 24.5069C12.8141 23.5127 11.0704 23.6181 10.0183 24.7183C9.01819 23.1329 8.76563 21.4298 9.37407 20.1294C10.0975 18.5831 12.0255 17.6906 14.8051 17.6133C14.9725 18.1513 15.0469 19.0115 14.3087 19.8555C14.053 20.1478 14.0828 20.592 14.3751 20.8477C14.5085 20.9643 14.6735 21.0215 14.8377 21.0215C15.0335 21.0215 15.2283 20.9402 15.3672 20.7813C16.1742 19.8586 16.4793 18.7289 16.2507 17.5965C16.5865 17.5971 16.9182 17.5998 17.2704 17.603C17.6377 17.6062 18.033 17.6097 18.4847 17.611C18.5984 18.146 18.5708 18.8913 17.9284 19.6277C17.673 19.9203 17.7034 20.3645 17.996 20.6197C18.1293 20.736 18.294 20.793 18.458 20.793C18.654 20.793 18.8491 20.7114 18.988 20.5521C19.739 19.6913 20.0545 18.653 19.9104 17.6016C23.9101 17.4498 27.1555 14.3122 27.4751 10.3606C29.1975 10.0426 30.5065 8.53172 30.5065 6.72ZM20.5331 6.96862C21.1942 6.96862 21.7319 7.50562 21.7319 8.16562C21.7319 8.82562 21.1942 9.36262 20.5331 9.36262C19.8721 9.36262 19.3343 8.82562 19.3343 8.16562C19.3343 7.50562 19.8722 6.96862 20.5331 6.96862ZM9.42507 27.5938L10.9746 25.7563C11.2703 25.4076 11.6926 25.228 12.1173 25.228C12.4583 25.228 12.8008 25.3438 13.0806 25.5806L15.0367 27.2347L14.0723 28.3715C13.0745 29.5516 12.8554 29.8101 12.4882 30.2431C12.2378 30.5384 11.9186 30.9148 11.2367 31.72L10.2744 32.8583L8.31666 31.2034C8.0026 30.9384 7.80703 30.5495 7.77985 30.1361C7.75472 29.7532 7.87632 29.3936 8.12222 29.1237C8.12766 29.1178 8.13282 29.1119 8.13797 29.1059L9.42272 27.5964C9.42366 27.5954 9.42441 27.5947 9.42507 27.5938ZM9.07125 25.832L8.35144 26.6856L7.55466 27.6217C7.22963 27.5208 6.92607 27.4042 6.67528 27.2825C5.31479 26.6155 4.20741 25.5895 3.40913 24.3149C4.28878 24.773 5.25394 25.0118 6.2356 25.0118C6.94557 25.0118 7.66407 24.8871 8.36485 24.6307C8.56125 25.0377 8.7975 25.4398 9.07125 25.832ZM14.8183 16.2061C12.2091 16.2697 10.1896 16.9943 8.96325 18.2778C7.66257 17.6648 6.56925 16.5577 5.92153 15.1767C5.22385 13.6892 5.11116 12.0218 5.60222 10.5749C7.34766 9.03703 9.60422 8.17772 12.1598 8.15334C11.8762 8.60878 11.7117 9.14568 11.7117 9.72037C11.7117 12.4018 13.0587 14.7737 15.111 16.1998C15.0153 16.2017 14.9185 16.2037 14.8183 16.2061ZM19.6074 16.2032C16.029 16.2032 13.1179 13.295 13.1179 9.72037C13.1179 8.85525 13.8227 8.15128 14.6891 8.15128H17.9285C17.9285 8.15615 17.9281 8.16084 17.9281 8.16572C17.9281 9.60112 19.0967 10.769 20.5331 10.769C21.9696 10.769 23.1382 9.60122 23.1382 8.16572C23.1382 8.16084 23.1378 8.15615 23.1378 8.15128H24.5258C25.3922 8.15128 26.0971 8.85515 26.0971 9.72037C26.0971 13.295 23.1859 16.2032 19.6074 16.2032Z" fill="black"/>
<path fill-rule="evenodd" clip-rule="evenodd" d="M29.3459 23.1994C29.3459 27.1671 32.5672 30.3827 36.5386 30.3827C40.51 30.3827 43.7313 27.1671 43.7313 23.1994C43.7313 21.9477 42.7072 20.9245 41.457 20.9245C37.2302 20.9245 36.895 20.9245 31.6202 20.9245C30.3699 20.9245 29.3459 21.9477 29.3459 23.1994Z" fill="#FF9A9F"/>
<path fill-rule="evenodd" clip-rule="evenodd" d="M21.9244 23.6618C20.6289 27.1432 22.608 31.3076 26.0927 32.6018C27.0423 31.3369 28.8644 30.4572 31.7665 30.3855C33.3918 30.3457 34.3361 30.3988 36.5386 30.3829C32.5672 30.3829 29.3459 27.1672 29.3459 23.1996C29.3459 21.9479 30.37 20.9247 31.6202 20.9247H29.1996C26.1725 20.9245 23.7306 21.9955 21.9244 23.6618Z" fill="#F8D2AB"/>
<path fill-rule="evenodd" clip-rule="evenodd" d="M18.5249 35.2672C20.1715 37.6165 23.0656 38.4829 25.6645 37.1833C25.058 35.5596 25.1272 33.8853 26.0927 32.6018C22.6081 31.3075 20.6291 27.1432 21.9244 23.6618C18.767 26.5691 17.5486 31.289 18.5249 35.2672Z" fill="#F8D2AB"/>
<path fill-rule="evenodd" clip-rule="evenodd" d="M27.8789 41.7651H27.878C27.205 42.5332 24.6099 42.0339 23.2965 41.3903C20.7303 40.1303 19.1628 37.8558 18.5252 35.2669C19.8776 37.1964 22.0706 38.1254 24.2506 37.6763C24.7253 37.5787 25.2 37.4159 25.6645 37.1834C25.941 37.9273 26.3589 38.6583 26.8959 39.3362C26.9704 39.4292 27.0476 39.5222 27.1277 39.6124C27.1481 39.6356 27.1686 39.6589 27.1872 39.6821C28.0846 40.745 28.2001 41.3987 27.8789 41.7651Z" fill="#F8D2AB"/>
<path fill-rule="evenodd" clip-rule="evenodd" d="M37.4643 23.5422C38.515 23.5422 39.3662 22.6918 39.3662 21.6421C39.3662 21.3896 39.3157 21.1477 39.2279 20.9245C38.9433 20.2309 38.2623 19.742 37.4643 19.742C36.6689 19.742 35.9853 20.231 35.7034 20.9245C35.6129 21.1477 35.5624 21.3896 35.5624 21.6421C35.5624 22.6918 36.4135 23.5422 37.4643 23.5422Z" fill="#EFECFF"/>
<path fill-rule="evenodd" clip-rule="evenodd" d="M27.8789 41.7651H27.878C25.8162 39.8485 24.582 38.2305 24.2515 37.6781C24.2515 37.6772 22.3558 35.2669 23.5497 30.9093C24.2515 31.6477 25.1135 32.2381 26.0927 32.6017C25.1275 33.885 25.0576 35.5597 25.6646 37.1834C25.941 37.9273 26.359 38.6583 26.896 39.3362C26.9704 39.4292 27.0476 39.5222 27.1277 39.6124C27.1481 39.6356 27.1687 39.6589 27.1872 39.6821C28.0846 40.745 28.2001 41.3987 27.8789 41.7651Z" fill="#FFBB8B"/>
<path fill-rule="evenodd" clip-rule="evenodd" d="M26.0927 32.6017C27.0423 31.3368 28.8644 30.4571 31.7665 30.3854C33.3918 30.3456 34.3361 30.3987 36.5386 30.3828C34.7511 30.3828 33.1178 29.7317 31.8596 28.6553C28.4175 28.6261 25.9996 28.3551 23.5497 30.9089C24.2519 31.6477 25.1137 32.2377 26.0927 32.6017Z" fill="#FFBB8B"/>
<path fill-rule="evenodd" clip-rule="evenodd" d="M36.5386 30.3827C40.51 30.3827 43.7313 27.1671 43.7313 23.1994C43.7313 21.9477 42.7072 20.9245 41.457 20.9245H40.9781C41.0233 21.1026 41.0446 21.2859 41.0446 21.4747C41.0446 25.4423 37.826 28.6606 33.8545 28.6606C33.0539 28.6632 32.4208 28.6606 31.8595 28.6552C33.1177 29.7316 34.7511 30.3827 36.5386 30.3827Z" fill="#FF8086"/>
<path fill-rule="evenodd" clip-rule="evenodd" d="M24.7919 45.2171L27.1807 47.2341C27.3004 47.3378 27.303 47.3059 27.4015 47.189L28.7049 45.6502L31.5404 42.3018L32.6204 41.0288C33.0008 40.5771 33.0461 40.7019 32.6125 40.3352L30.4631 38.5201C29.5428 37.7414 28.1489 37.8557 27.3695 38.7779L26.896 39.336L24.7413 41.9005L24.5338 42.1264C23.7199 43.0193 23.8716 44.4384 24.7919 45.2171Z" fill="#FF9A9F"/>
<path fill-rule="evenodd" clip-rule="evenodd" d="M29.2634 39.9419L31.4127 41.7596C31.6494 41.9589 31.7425 42.0121 31.7186 42.0918L32.6204 41.0287C33.0007 40.577 33.046 40.7018 32.6124 40.3351L30.4631 38.52C29.5428 37.7413 28.1489 37.8556 27.3695 38.7778L26.8959 39.3359L26.1697 40.1996C26.4224 39.902 26.739 39.6893 27.0821 39.5618C27.8031 39.2988 28.641 39.4157 29.2634 39.9419Z" fill="#FF8086"/>
<path d="M43.9288 16.5238L33.6132 13.5049C33.2405 13.3957 32.8499 13.6096 32.7409 13.9822C32.6319 14.3549 32.8455 14.7455 33.2183 14.8546L43.534 17.8736C45.1912 18.3577 46.0314 19.1402 46.0314 20.1991C46.0314 21.2592 45.3085 22.1534 44.3294 22.417C43.985 21.1534 42.828 20.2214 41.457 20.2214H39.6456C39.1801 19.5101 38.3765 19.0387 37.4643 19.0387C36.5521 19.0387 35.7485 19.51 35.283 20.2214H31.6202H29.1996C26.5398 20.2214 24.0984 21.0286 22.1392 22.5558C20.374 23.9317 19.0244 25.8523 18.2361 28.1099C18.1081 28.4766 18.3015 28.8774 18.6681 29.0055C18.7448 29.0323 18.823 29.045 18.8999 29.045C19.1906 29.045 19.4625 28.8633 19.5638 28.5734C19.8917 27.634 20.3171 26.7766 20.8277 26.0094C20.8425 27.1046 21.0938 28.2154 21.5794 29.2506C22.3292 30.8489 23.5789 32.1488 25.0762 32.9183C25.0607 32.9494 25.0446 32.9801 25.0299 33.0117C24.5037 34.1368 24.4395 35.458 24.8002 36.7906C22.7449 37.5411 20.5563 36.8488 19.1771 34.9684C18.9381 33.9453 18.8488 32.8458 18.9259 31.7003C18.9519 31.3128 18.659 30.9776 18.2716 30.9516C17.8859 30.9252 17.5489 31.2184 17.5228 31.6058C17.212 36.227 19.306 40.218 22.988 42.0219C23.1697 42.1107 23.3725 42.1965 23.5875 42.2771C23.3724 42.7103 23.2738 43.1981 23.3065 43.7032C23.3579 44.4954 23.7338 45.2428 24.3384 45.7543L26.7205 47.7658C26.797 47.832 26.9911 48.0001 27.2824 48C27.3039 48 27.3259 47.9991 27.3484 47.9972C27.671 47.9694 27.8441 47.7579 27.918 47.6677L33.1583 41.4817C33.2159 41.4131 33.2651 41.3596 33.3046 41.3164C33.4413 41.167 33.6477 40.9415 33.623 40.5905C33.598 40.2365 33.365 40.0449 33.1779 39.8909C33.1453 39.8642 33.1083 39.8337 33.0661 39.798L30.9173 37.9833C30.3286 37.4853 29.5782 37.2464 28.8054 37.3104C28.09 37.3698 27.4378 37.6821 26.9492 38.195C25.9486 36.6103 25.6958 34.9077 26.3038 33.6073C27.0271 32.0603 28.9555 31.1675 31.7358 31.0899C31.9038 31.6265 31.9797 32.4863 31.24 33.3322C30.9844 33.6245 31.0141 34.0687 31.3064 34.3243C31.4398 34.4409 31.6048 34.4981 31.7691 34.4981C31.9648 34.4981 32.1596 34.4168 32.2986 34.2578C33.1061 33.3344 33.4113 32.2049 33.182 31.0736C33.5018 31.0744 33.8183 31.0771 34.1538 31.0802C34.5341 31.0837 34.9444 31.0874 35.4158 31.0885C35.529 31.6239 35.501 32.3692 34.8597 33.1043C34.6044 33.3968 34.6347 33.841 34.9273 34.0963C35.0606 34.2126 35.2254 34.2696 35.3893 34.2696C35.5854 34.2696 35.7805 34.188 35.9194 34.0286C36.6696 33.1687 36.9835 32.1304 36.8396 31.0786C40.84 30.9279 44.0865 27.7911 44.4063 23.8399C46.1287 23.5218 47.4377 22.0108 47.4377 20.1991C47.4376 18.9901 46.8288 17.3711 43.9288 16.5238ZM37.4643 20.445C38.1253 20.445 38.6631 20.982 38.6631 21.642C38.6631 22.302 38.1253 22.839 37.4643 22.839C36.8033 22.839 36.2655 22.302 36.2655 21.642C36.2655 20.982 36.8033 20.445 37.4643 20.445ZM28.9215 38.7119C28.9643 38.7084 29.0068 38.7066 29.0492 38.7066C29.4025 38.7066 29.7392 38.8287 30.0094 39.0573L31.9677 40.7111L27.2043 46.3339L25.246 44.6803C24.9319 44.4146 24.7364 44.0253 24.7097 43.6122C24.6849 43.2299 24.807 42.8705 25.0535 42.6001C25.0587 42.5943 25.0638 42.5885 25.0689 42.5826L26.3536 41.0757C26.3545 41.0746 26.3555 41.0736 26.3564 41.0724L27.9064 39.2318C28.1619 38.9296 28.5223 38.745 28.9215 38.7119ZM26.0027 39.3094L25.2824 40.1648L24.4858 41.099C24.1595 40.9977 23.856 40.881 23.6063 40.7588C22.2431 40.091 21.135 39.0643 20.3366 37.7889C21.2177 38.2479 22.1845 38.4872 23.1677 38.4872C23.8771 38.4872 24.595 38.3627 25.295 38.107C25.4918 38.5145 25.7284 38.9169 26.0027 39.3094ZM31.7494 29.6825C29.14 29.746 27.1205 30.4706 25.8939 31.754C24.5935 31.1409 23.5002 30.034 22.8526 28.6534C22.1542 27.1646 22.042 25.4963 22.5349 24.0494C24.2811 22.5119 26.5374 21.6533 29.0917 21.6296C28.8076 22.0857 28.6428 22.6236 28.6428 23.1994C28.6428 25.8797 29.9895 28.2504 32.0414 29.6762C31.946 29.6781 31.8494 29.68 31.7494 29.6825ZM36.5386 29.6796C32.9602 29.6796 30.049 26.7726 30.049 23.1994C30.049 22.3328 30.7539 21.6277 31.6203 21.6277H34.8596C34.8596 21.6325 34.8593 21.6372 34.8593 21.6421C34.8593 23.0775 36.0279 24.2453 37.4643 24.2453C38.9007 24.2453 40.0693 23.0776 40.0693 21.6421C40.0693 21.6372 40.069 21.6325 40.069 21.6277H41.457C42.3234 21.6277 43.0283 22.3328 43.0283 23.1994C43.0282 26.7726 40.117 29.6796 36.5386 29.6796Z" fill="black"/>
</g>
<defs>
<clipPath id="clip0">
<rect width="48" height="48" fill="white"/>
</clipPath>
</defs>
</svg>
